<svg id="Layer_1" data-name="Layer 1" xmlns="http://www.w3.org/2000/svg" viewBox="0 0 480.49 400"><defs><style>.cls-1{opacity:0.2;}.cls-2{fill:#fcbf49;}</style></defs><g class="cls-1"><path class="cls-2" d="M75.54,368.39Q40.37,345.22,20.18,301T0,196.32Q0,135.78,20.18,91.61T75.54,24.25Q110.71,1.08,156,1.07q44.72,0,79.9,23.18t55.36,67.36q20.16,44.18,20.18,104.71T291.24,301Q271,345.22,235.88,368.39T156,391.57Q110.71,391.57,75.54,368.39Zm153.8-63q27.53-37.63,27.54-109.08T229.34,87.25Q201.79,49.61,156,49.61q-46.36,0-73.9,37.64T54.54,196.32q0,71.46,27.54,109.08T156,343Q201.79,343,229.34,305.4Z"/><path class="cls-2" d="M480.49.63V382.4h-54V48.08H340.32V.63Z"/></g></svg>