<svg id="Layer_1" data-name="Layer 1" xmlns="http://www.w3.org/2000/svg" viewBox="0 0 633.05 400"><defs><style>.cls-1{opacity:0.2;}.cls-2{fill:#fcbf49;}</style></defs><g class="cls-1"><path class="cls-2" d="M75.85,369.9q-35.32-23.28-55.59-67.64T0,197.12Q0,136.34,20.26,92T75.85,24.35Q111.16,1.07,156.62,1.07q44.9,0,80.23,23.28T292.43,92q20.25,44.35,20.26,105.14T292.43,302.26q-20.26,44.37-55.58,67.64t-80.23,23.27Q111.16,393.17,75.85,369.9Zm154.42-63.25q27.66-37.8,27.66-109.53T230.27,87.6q-27.66-37.78-73.65-37.79-46.56,0-74.2,37.79T54.76,197.12q0,71.75,27.66,109.53t74.2,37.78Q202.63,344.43,230.27,306.65Z"/><path class="cls-2" d="M633.05,341.15v47.64H357.6V351.55L513.67,201q28.47-27.37,38.33-47.36t9.86-40.25q0-30.12-21.08-46.83t-60.52-16.7q-63.52,0-98,41.62L345,59.12q22.46-27.37,58.87-42.71T485.19,1.07q60.24,0,95.84,28.75t35.59,78a132.47,132.47,0,0,1-13.14,58.05q-13.14,27.39-49.84,62.43L436.45,341.15Z"/></g></svg>