<svg id="Layer_1" data-name="Layer 1" xmlns="http://www.w3.org/2000/svg" viewBox="0 0 622.08 400"><defs><style>.cls-1{opacity:0.2;}.cls-2{fill:#fcbf49;}</style></defs><g class="cls-1"><path class="cls-2" d="M75.84,369.88q-35.31-23.26-55.58-67.62T0,197.12Q0,136.32,20.26,92T75.84,24.35Q111.17,1.07,156.62,1.07q44.9,0,80.22,23.28T292.42,92q20.25,44.35,20.26,105.14T292.42,302.26q-20.26,44.36-55.58,67.62t-80.22,23.28Q111.16,393.16,75.84,369.88Zm154.43-63.24q27.64-37.78,27.65-109.52T230.27,87.6q-27.66-37.78-73.65-37.79-46.56,0-74.21,37.79T54.76,197.12q0,71.75,27.65,109.52t74.21,37.78Q202.61,344.42,230.27,306.64Z"/><path class="cls-2" d="M592.51,201.22q29.57,29.31,29.57,74.75,0,32.85-16.43,59.42t-49,42.16Q524,393.17,477,393.16a252.82,252.82,0,0,1-78.85-12.32q-37.78-12.33-61.88-34.23l25.19-43.26Q381.13,322,411.8,333.19A187.88,187.88,0,0,0,477,344.42q42.72,0,66.54-18.07t23.82-49.83q0-31.75-23.55-49.29t-71.19-17.52H441.92V171.38L538.29,53.1H353.75V5.45h253V42.69L506.53,166.45Q562.93,171.93,592.51,201.22Z"/></g></svg>