<?xml version="1.0" encoding="utf-8"?>
<!-- Generator: Adobe Illustrator 24.2.1, SVG Export Plug-In . SVG Version: 6.00 Build 0)  -->
<svg version="1.1" id="Capa_1" xmlns="http://www.w3.org/2000/svg" xmlns:xlink="http://www.w3.org/1999/xlink" x="0px" y="0px"
	 viewBox="0 0 512 512" style="enable-background:new 0 0 512 512;" xml:space="preserve">
<style type="text/css">
	.st0{fill:#FCBF49;}
	.st1{fill:#D15A5A;}
	.st2{fill:#D62828;}
	.st3{fill:#EAEAEA;}
	.st4{fill:#FFFFFF;}
	.st5{fill:#F77F00;}
</style>
<path class="st0" d="M149.9,101.6l-29.9-30c-6.9-6.9-16.2-10.8-26-10.8s-19,3.8-26,10.8L46.4,93.4c-14.3,14.3-14.3,37.6,0,51.8
	l30,30c2.9,2.9,6.8,4.4,10.6,4.4c3.8,0,7.7-1.5,10.6-4.4c5.9-5.9,46.5-46.6,52.3-52.4C155.8,117,155.8,107.5,149.9,101.6z"/>
<path class="st0" d="M256,3c-8.3,0-15,6.7-15,15v48c0,8.3,6.7,15,15,15s15-6.7,15-15V18C271,9.7,264.3,3,256,3z"/>
<path class="st1" d="M293,0h-74c-8.3,0-15,6.7-15,15s6.7,15,15,15h74c8.3,0,15-6.7,15-15S301.3,0,293,0z"/>
<path class="st1" d="M256,0h-37c-8.3,0-15,6.7-15,15s6.7,15,15,15h37V0z"/>
<path class="st2" d="M418.6,118.6C375.2,75.1,317.4,51.1,256,51.1s-119.2,24-162.6,67.5C49.9,162.1,26,220,26,281.6
	S49.9,401,93.4,444.5C136.8,488,194.6,512,256,512s119.2-24,162.6-67.5C462.1,401,486,343.1,486,281.6S462.1,162.1,418.6,118.6z"/>
<path class="st2" d="M256,51.1c-61.4,0-119.2,24-162.6,67.5C49.9,162.1,26,220,26,281.6S49.9,401,93.4,444.5
	C136.8,488,194.6,512,256,512V51.1z"/>
<path class="st3" d="M428.7,281.5c0,95.4-77.5,173-172.7,173c-23.5,0-46-4.8-66.5-13.3c-62.3-26.1-106.2-87.9-106.2-159.7
	c0-95.4,77.5-173,172.7-173c85.5,0,156.6,62.5,170.3,144.3C427.9,262.2,428.7,271.8,428.7,281.5z"/>
<path class="st4" d="M428.7,281.5c0,95.4-77.5,173-172.7,173c-23.5,0-46-4.8-66.5-13.3c-55-27.2-92.8-83.4-92.8-148.2
	c0-91.3,75-165.6,167.3-165.6c78.2,0,144.1,53.4,162.3,125.4C427.9,262.2,428.7,271.8,428.7,281.5z"/>
<g>
	<path class="st5" d="M256,146c8.3,0,15-6.7,15-15v-21.8c-4.9-0.4-9.9-0.7-15-0.7c-5.1,0-10.1,0.2-15,0.7V131
		C241,139.3,247.7,146,256,146z"/>
	<path class="st5" d="M256,417.1c-8.3,0-15,6.7-15,15v21.8c4.9,0.4,9.9,0.7,15,0.7c5.1,0,10.1-0.2,15-0.7v-21.8
		C271,423.8,264.3,417.1,256,417.1z"/>
	<path class="st5" d="M428,266.6h-21.5c-8.3,0-15,6.7-15,15s6.7,15,15,15H428c0.4-4.9,0.7-9.9,0.7-15S428.5,271.5,428,266.6z"/>
	<path class="st5" d="M120.5,281.6c0-8.3-6.7-15-15-15H84c-0.4,4.9-0.7,9.9-0.7,15s0.2,10.1,0.7,15h21.5
		C113.7,296.6,120.5,289.8,120.5,281.6z"/>
	<path class="st5" d="M293,272.9h-21.2v-60.7c0-8.3-6.7-15-15-15s-15,6.7-15,15v75.7c0,8.3,6.7,15,15,15H293c8.3,0,15-6.7,15-15
		S301.3,272.9,293,272.9z"/>
</g>
</svg>
