<svg id="Layer_1" data-name="Layer 1" xmlns="http://www.w3.org/2000/svg" viewBox="0 0 596.34 204.42"><defs><style>.cls-1{opacity:0;}.cls-2{fill:#fcbf49;}.cls-3{fill:#f77f00;}.cls-4{fill:#d62828;}</style></defs><g class="cls-1"><polygon class="cls-2" points="596.34 122.08 14.37 204.42 14.37 97.82 596.34 15.48 596.34 122.08"/></g><g class="cls-1"><polygon class="cls-3" points="581.97 107.7 0 190.05 0 83.45 581.97 1.1 581.97 107.7"/></g><path class="cls-4" d="M8.34,197.08V89.26l.52-.08L591.52,6.74V114.57l-.52.07ZM9.55,90.31V195.69l580.76-82.18V8.14Z"/><path class="cls-4" d="M79.5,151.51a15.77,15.77,0,0,1-7.76-6.15A17.86,17.86,0,0,1,69,135.17a22.43,22.43,0,0,1,2.93-11,24.82,24.82,0,0,1,7.89-8.46,27,27,0,0,1,11.25-4.29,22.89,22.89,0,0,1,9.83.47,15.34,15.34,0,0,1,7.24,4.45l-7.23,7.49a10.15,10.15,0,0,0-9.34-3.24,13.32,13.32,0,0,0-5.79,2.27,12.36,12.36,0,0,0-4,4.56,13.54,13.54,0,0,0-1.44,6.1,11,11,0,0,0,1.34,5.69,7.89,7.89,0,0,0,3.9,3.4,10.79,10.79,0,0,0,5.76.56,14.24,14.24,0,0,0,9.42-6l7.12,5.38a23.69,23.69,0,0,1-7.33,6.6,27.26,27.26,0,0,1-9.86,3.38A22.09,22.09,0,0,1,79.5,151.51Z"/><path class="cls-4" d="M120.74,145.39a16,16,0,0,1-7.84-6.17,17.59,17.59,0,0,1-2.79-10.13,22.14,22.14,0,0,1,3-11,25.2,25.2,0,0,1,8-8.51,27.28,27.28,0,0,1,11.37-4.33,22.34,22.34,0,0,1,11.33,1,15.93,15.93,0,0,1,7.84,6.17,17.58,17.58,0,0,1,2.79,10.12,22.15,22.15,0,0,1-3,11,25.2,25.2,0,0,1-8,8.51,27.42,27.42,0,0,1-11.37,4.33A22.35,22.35,0,0,1,120.74,145.39Zm16.88-10.5a12.75,12.75,0,0,0,3.9-4.55,13.31,13.31,0,0,0,1.47-6.11,10.75,10.75,0,0,0-1.37-5.68,8.09,8.09,0,0,0-3.84-3.41,9.85,9.85,0,0,0-5.45-.6,12.22,12.22,0,0,0-5.47,2.21,12.83,12.83,0,0,0-3.9,4.55,13.37,13.37,0,0,0-1.47,6.11,10.79,10.79,0,0,0,1.37,5.69,8.18,8.18,0,0,0,3.84,3.41,9.85,9.85,0,0,0,5.45.6A12.35,12.35,0,0,0,137.62,134.89Z"/><path class="cls-4" d="M196.08,136.12l.06-20.92-10.38,18.56-5,.74-10.05-15-.17,20.37-10.41,1.54.33-39.5,9.27-1.37,13.81,20.73,13.84-24.82,9.27-1.37-.21,39.49Z"/><path class="cls-4" d="M214.72,93.91,226,92.25l-.32,39.5-11.27,1.66Z"/><path class="cls-4" d="M271.89,85.46,271.57,125l-9.28,1.37-17.4-18.46-.17,21.05-11,1.64L234,91.06l9.27-1.37,17.4,18.45.18-21Z"/><path class="cls-4" d="M306.38,99.25l10-1.47-.14,16.37a31.61,31.61,0,0,1-7.88,4.88,35,35,0,0,1-8.88,2.61,22.16,22.16,0,0,1-11.25-1,15.75,15.75,0,0,1-7.79-6.15,17.78,17.78,0,0,1-2.75-10.19,22.46,22.46,0,0,1,2.93-11,24.58,24.58,0,0,1,8-8.47A27.87,27.87,0,0,1,300,80.52a24.23,24.23,0,0,1,10,.39,15.57,15.57,0,0,1,7.35,4.26l-7.22,7.5a11,11,0,0,0-9.64-3,13.31,13.31,0,0,0-8.27,4.3,12.76,12.76,0,0,0-3.2,8.67,10.57,10.57,0,0,0,1.38,5.63,8.1,8.1,0,0,0,4,3.42,10.77,10.77,0,0,0,5.84.57,16.39,16.39,0,0,0,6.1-2.19Z"/><path class="cls-4" d="M344.5,113.8a19.86,19.86,0,0,1-7.37-2.07l3.76-8.79a20.56,20.56,0,0,0,6.18,1.91,23,23,0,0,0,6.93.05q6.5-1,6.52-4.18a2.21,2.21,0,0,0-1.83-2.24,31.54,31.54,0,0,0-5.93-.84,52.34,52.34,0,0,1-7.5-1,10.34,10.34,0,0,1-5.14-2.76c-1.43-1.41-2.13-3.48-2.11-6.23a12.8,12.8,0,0,1,2-6.81,16.76,16.76,0,0,1,6-5.48,27.27,27.27,0,0,1,9.71-3.12,33.52,33.52,0,0,1,7.73-.27,20.94,20.94,0,0,1,6.69,1.57l-3.54,8.81a21.32,21.32,0,0,0-11-1.41,10.49,10.49,0,0,0-4.9,1.71,3.56,3.56,0,0,0-1.56,2.79,2.1,2.1,0,0,0,1.81,2.1,29.23,29.23,0,0,0,5.84.77,50,50,0,0,1,7.52,1A10.66,10.66,0,0,1,369.48,92c1.45,1.39,2.16,3.45,2.14,6.2a12.54,12.54,0,0,1-2.05,6.72,17,17,0,0,1-6,5.49,27.11,27.11,0,0,1-9.68,3.15A36.56,36.56,0,0,1,344.5,113.8Z"/><path class="cls-4" d="M385.44,106.28a16,16,0,0,1-7.85-6.16A17.61,17.61,0,0,1,374.81,90a22.18,22.18,0,0,1,3-11,25.07,25.07,0,0,1,8-8.5,27.14,27.14,0,0,1,11.37-4.33,22.19,22.19,0,0,1,11.32,1,16,16,0,0,1,7.85,6.17,17.61,17.61,0,0,1,2.79,10.13,22.31,22.31,0,0,1-3,11,25.17,25.17,0,0,1-8,8.5,27.14,27.14,0,0,1-11.37,4.33A22.23,22.23,0,0,1,385.44,106.28Zm16.88-10.49a12.85,12.85,0,0,0,3.9-4.55,13.37,13.37,0,0,0,1.47-6.11,10.79,10.79,0,0,0-1.37-5.69,8.16,8.16,0,0,0-3.84-3.4,9.85,9.85,0,0,0-5.45-.61,12.35,12.35,0,0,0-5.47,2.22,12.75,12.75,0,0,0-3.9,4.55,13.1,13.1,0,0,0-1.47,6.11A10.66,10.66,0,0,0,387.56,94a8,8,0,0,0,3.84,3.41,9.81,9.81,0,0,0,5.44.6A12.26,12.26,0,0,0,402.32,95.79Z"/><path class="cls-4" d="M433.57,99.17A15.94,15.94,0,0,1,425.72,93a17.48,17.48,0,0,1-2.78-10.12,22.07,22.07,0,0,1,3-11,25.14,25.14,0,0,1,8-8.5,27.14,27.14,0,0,1,11.37-4.33,22.23,22.23,0,0,1,11.33,1,16.05,16.05,0,0,1,7.85,6.17,17.51,17.51,0,0,1,2.78,10.13,22.2,22.2,0,0,1-3,11,25.14,25.14,0,0,1-8,8.5,27.38,27.38,0,0,1-11.37,4.33A22.23,22.23,0,0,1,433.57,99.17Zm16.87-10.49a12.87,12.87,0,0,0,3.91-4.55A13.37,13.37,0,0,0,455.82,78a10.79,10.79,0,0,0-1.38-5.69,8.09,8.09,0,0,0-3.83-3.4,9.86,9.86,0,0,0-5.45-.61,12.3,12.3,0,0,0-5.47,2.22,12.77,12.77,0,0,0-3.91,4.55,13.34,13.34,0,0,0-1.47,6.11,10.66,10.66,0,0,0,1.38,5.68,8.06,8.06,0,0,0,3.83,3.41,9.85,9.85,0,0,0,5.45.6A12.17,12.17,0,0,0,450.44,88.68Z"/><path class="cls-4" d="M511.16,50.12l-.33,39.5L501.56,91l-17.4-18.45-.18,21-11,1.63.32-39.51,9.28-1.37L500,72.79l.17-21Z"/></svg>