<?xml version="1.0" encoding="utf-8"?>
<!-- Generator: Adobe Illustrator 24.2.1, SVG Export Plug-In . SVG Version: 6.00 Build 0)  -->
<svg version="1.1" id="Layer_1" xmlns="http://www.w3.org/2000/svg" xmlns:xlink="http://www.w3.org/1999/xlink" x="0px" y="0px"
	 viewBox="0 0 512 512" style="enable-background:new 0 0 512 512;" xml:space="preserve">
<style type="text/css">
	.st0{fill:#FCBF49;}
	.st1{fill:#F77F00;}
	.st2{fill:#E3804B;}
	.st3{fill:#F9A819;}
	.st4{fill:#D62828;}
	.st5{fill:#FDFDFD;}
	.st6{fill:#FFFFFF;}
</style>
<g>
	<g>
		<path class="st0" d="M34.7,88.5c0,0,75.4-47,226.8-46s217.9,45.9,217.9,45.9l-34.1,144c0,0-81.1-33.6-180.8-34.1
			c-99.7-0.4-195.7,34.1-195.7,34.1L36.1,94.3L34.7,88.5z"/>
		<path class="st1" d="M512,76.6c0,3.3,0,6.6,0,10c-0.4,0.8-0.9,1.6-1.2,2.5c-3.1,12.7-6.2,25.3-9.3,38
			c-4.9,20.7-9.8,41.4-14.7,62.1c-2,8.3-4,16.5-5.9,24.8c-5.5,22.5-11.1,44.9-16.6,67.4c-1.6,6.5-3.1,7.9-9.7,8.4
			c-5.6-3.7-6.3-5.5-4.8-12c3.7-15.3,7.4-30.6,11.1-45.9c11.9-49.1,23.7-98.2,35.6-147.3c1.5-6-0.4-8.7-6.4-9.5
			c-5.6,0.5-5.9,5.1-6.8,9c-24.5,101.2-48.9,202.4-73.4,303.7c-4,16.4-7.9,32.8-11.9,49.3c-1.5,6.1-0.1,8.5,5.5,9.9
			c5,0.2,6.3-3.2,7.2-7.2c10.2-42.4,20.5-84.8,30.7-127.1c1.7-6.9,3.3-8.4,9.9-8.8c1.8,1.7,3.6,3.5,5.3,5.2
			c-0.3,2.6-0.4,5.2-0.9,7.8c-1,5.3-2.3,10.6-3.4,15.9c-0.2,0.4-0.6,0.8-0.7,1.3c-7.3,30.5-14.7,61.1-22,91.6
			c-2.5,8.8-4.9,17.6-7.4,26.5c-2.3,2.3-4.6,4.6-6.9,6.9c-6.3,3.2-12.9,4.1-19.7,1.9c-12-7-15.2-14.5-12.1-28
			c2.9-12.3,5.8-24.6,8.8-36.9c2-8.5,4-16.9,6-25.4c1.9-7.4,3.8-14.7,5.6-22.1c5.6-23.5,11.2-47,16.8-70.5c2-8.2,3.9-16.5,5.9-24.7
			c1-3.6,2-7.2,3.3-11.9c-17.1-5.2-33.7-10.2-50.4-15.2c-4.2-1.1-8.4-2.2-12.5-3.3c-21-3.4-42.1-6.9-63.1-10.3
			c-6-0.4-12-0.8-17.9-1.2c-12.7-0.3-25.4-1-38.1-0.9c-11.2,0.1-22.4,1.2-33.6,1.9c-7,0.7-13.9,1.4-20.9,2.1c-0.7,0-1.3-0.1-2,0
			c-30.9,4.3-61.2,11.4-90.6,22c-5.3,1.8-10.5,3.6-16.4,5.5c0.9,2.9,1.6,5.5,2.4,8.1c4.6,19,9.1,37.9,13.7,56.9
			c1.3,5.3,2.5,10.6,3.8,16c4.6,18.9,9.1,37.7,13.7,56.6c1.3,5,2.5,10,3.8,15c0.2,1.1,0.2,2.3,0.5,3.4c3,12.4,6,24.8,9,37.2
			c2.9,12.3-3.6,23.4-15.5,26.5c-11.3,3-22.6-3.9-26-15.8c-1-3.5-1.9-7-2.9-10.5c-0.3-1-0.5-2-0.8-3.1c-1.2-5-2.3-10-3.5-15
			c-3.7-15.6-7.4-31.2-11.2-46.8c-1.2-5-0.2-8.8,4.8-11c6.6,0.1,8.2,1.3,9.8,7.9c5.9,24.2,11.8,48.5,17.7,72.7
			c0.8,3.4,1.9,6.4,6,6.8c6.4-0.4,8.2-3.2,6.5-10.1c-8.3-34.5-16.7-69.1-25.1-103.6c-15.8-65.4-31.5-130.9-47.3-196.3
			c-4.5-18.5-9-37-13.5-55.5c-1.1-4.3-3-7.4-8.2-6c-4.7,1.4-5.4,4.6-4.3,8.9c4,16.4,7.9,32.8,11.9,49.2
			C45.7,200,61.8,266.6,77.9,333.2c1.6,6.6,0.7,8.7-5,11.6c-2.6-0.9-5.2-1.8-7.8-2.6c-0.7-2.3-1.5-4.7-2.1-7
			c-3.8-15.1-7.5-30.3-11.2-45.4c-0.2-0.7-0.4-1.4-0.7-2c-1.2-5-2.3-10-3.5-15c-4.6-18.9-9.1-37.7-13.7-56.6c-1.3-5-2.5-10-3.8-15
			c-2.6-11.4-5.2-22.7-7.9-34c-1.9-7.6-4.1-15.1-6.2-22.7c-1.1-5.4-2.2-10.7-3.3-16.1C9.4,114.1,6,100,2.7,85.8
			c-1.9-8.1,0.4-15.7,6.4-20.7c13.5-11.3,31.2-3.6,35.1,10c0.4,1.5,0.9,3.1,1.6,5.1c8.9-3.5,17.6-7,26.2-10.4c9.3-3,18.5-6,27.8-9.1
			c17.2-4.2,34.3-8.6,51.5-12.4c12.6-2.7,25.4-4.5,38.1-6.7c7-0.7,13.9-1.4,20.9-2.1c23.9-0.5,47.7-1.1,71.6-1.6
			c6.3,0.5,12.7,1,19,1.4c1,0.1,2,0.1,3,0.2c8.2,1,16.4,2,24.6,3c6.7,0.8,8,2.2,9.1,8.9c-3,5.9-5,6.6-11.9,5.9
			c-14.2-1.4-28.5-2.5-42.8-3.7c-6.3-0.3-12.6-0.5-18.9-0.8c-15.5,0.5-31.1,0.6-46.6,1.5c-9.4,0.5-18.7,2-28,3.1
			c-7.3,1.1-14.6,2.2-21.9,3.3c-15.5,3.3-31.1,5.9-46.4,10.1c-17.6,4.9-34.8,11.1-52.2,16.8c-3.3,1.3-6.7,2.6-10,3.9
			c-3.2,1.2-6.4,2.4-9.8,3.6c10.7,44.2,21.3,88,31.9,132.1c3.3-1.3,6.1-2.3,8.8-3.4c3.6-1.3,7.3-2.6,10.9-3.8
			c9.3-2.8,18.6-5.7,27.8-8.5c3.4-0.8,6.7-1.6,10.1-2.4c24.5-6.3,49.4-9.9,74.6-12.4c7-0.5,14-0.9,20.9-1.4
			c22.9,0.5,45.8,1.1,68.7,1.6c5.9,0.6,11.8,1.3,17.7,1.9c2.1,0.3,4.3,0.6,6.4,0.9c17,3.2,34,6.4,51,9.7c5.5,1.5,11,3.1,16.5,4.6
			c9.9,3.3,19.9,6.6,29.8,9.8c2.9,1.1,5.7,2.2,8.9,3.4c10.7-44.3,21.2-88,31.9-132.1c-3.4-1.3-6.6-2.5-9.8-3.7
			c-7.3-2.7-14.6-5.4-21.9-8.2c-5-1.5-10-3-15.1-4.4c-1-0.6-1.9-1.5-2.9-1.7c-17.6-4.5-35.2-8.8-52.8-13.3
			c-4.1-1.3-8.7-1.5-10.8-6.2c-0.1-1.3-0.2-2.6-0.2-3.9c1.9-5.3,5.9-6.7,11-5.9c5.3,1.2,10.7,2.4,16,3.7
			c18.2,5.1,36.5,10.1,54.7,15.2c4,1.4,8,2.8,12,4.3c7.7,3.1,15.4,6.1,23.3,9.3c0.7-2.5,1.1-4.3,1.7-6c4.2-12,18.2-17.8,29.7-12.3
			C506.3,65,509.5,70.5,512,76.6z"/>
		<path class="st2" d="M403.4,446.8c-5.6-1.4-6.9-3.8-5.5-9.9c3.9-16.4,7.9-32.8,11.9-49.3c24.5-101.2,48.9-202.5,73.4-303.7
			c1-3.9,1.2-8.5,6.8-9c0.2,3.1,1.3,6.3,0.6,9.2c-5.9,25.2-12,50.3-18.1,75.5c-7.2,29.8-14.3,59.6-21.5,89.4
			c-12.1,49.8-24.2,99.7-36.2,149.5C410.9,414.7,407.2,430.8,403.4,446.8z"/>
		<path class="st3" d="M76.1,359.3c-0.4-1.6-0.8-3.3-1.2-4.9c-0.7-3.2-1.4-6.4-2.1-9.6c5.7-2.9,6.6-5,5-11.6
			C61.8,266.6,45.7,200,29.6,133.5c-4-16.4-7.9-32.8-11.9-49.2c-1.1-4.3-0.4-7.5,4.3-8.9c0.7,2,1.5,4,2,6.1
			c5.5,22.8,10.9,45.6,16.3,68.4C50,189.9,59.5,230,69.2,270.1c4.6,19.2,9.5,38.4,14.2,57.7c8.2,33.5,16.2,67.1,24.4,100.6
			c1.5,6.1,3.3,12.1,1.8,18.4c-4.1-0.4-5.2-3.4-6-6.8c-5.8-24.3-11.8-48.5-17.7-72.7C84.4,360.6,82.8,359.3,76.1,359.3z"/>
		<path class="st4" d="M109.6,446.8c1.5-6.3-0.3-12.3-1.8-18.4c-8.2-33.5-16.2-67-24.4-100.6c-4.7-19.2-9.6-38.4-14.2-57.7
			C59.5,230,50,189.9,40.4,149.8c-5.4-22.8-10.8-45.6-16.3-68.4c-0.5-2.1-1.3-4.1-2-6.1c5.2-1.4,7.2,1.7,8.2,6
			c4.5,18.5,9.1,37,13.5,55.5c15.8,65.4,31.5,130.9,47.3,196.3c8.3,34.5,16.7,69.1,25.1,103.6C117.9,443.6,116,446.4,109.6,446.8z"
			/>
		<path class="st4" d="M403.4,446.8c3.8-16,7.5-32.1,11.4-48.1c12.1-49.8,24.2-99.7,36.2-149.5c7.2-29.8,14.3-59.6,21.5-89.4
			c6.1-25.2,12.2-50.3,18.1-75.5c0.7-2.9-0.4-6.1-0.6-9.2c6,0.8,7.9,3.4,6.4,9.5c-11.8,49.1-23.7,98.2-35.6,147.3
			c-3.7,15.3-7.4,30.6-11.1,45.9c-1.6,6.5-0.9,8.3,4.8,12c-1.1,4.7-2.2,9.3-3.3,14c-6.6,0.4-8.2,1.9-9.9,8.8
			c-10.2,42.4-20.5,84.8-30.7,127.1C409.6,443.6,408.4,447,403.4,446.8z"/>
		<path class="st0" d="M77.9,170.2c2.1,9.2,4.3,18.5,6.4,27.7c1.9,8.6,3.7,17.2,5.6,25.9c-2.8,1.1-5.5,2.1-8.8,3.4
			c-10.6-44.1-21.2-87.9-31.9-132.1c3.4-1.2,6.6-2.4,9.8-3.6c0.7,2,1.3,4,2,6.1c2,9.7,3.9,19.4,6.1,29c2.1,9.3,4.6,18.5,6.9,27.8
			C75.2,159.6,76.5,164.9,77.9,170.2z"/>
		<path class="st0" d="M442.3,147.3c4.3-17.7,8.6-35.3,12.8-53c0.2-0.9,0.2-2,0.2-2.9c3.2,1.2,6.4,2.4,9.8,3.7
			c-10.7,44.1-21.2,87.8-31.9,132.1c-3.2-1.2-6-2.3-8.9-3.4c0.1-1.5,0.1-3,0.4-4.4c3.8-15.7,7.7-31.5,11.6-47.2
			C438.3,163.9,440.3,155.6,442.3,147.3z"/>
		<path class="st5" d="M49,289.7c0.7-0.7,1.4-1.4,2.1-2c0.2,0.7,0.4,1.4,0.7,2C50.8,289.7,49.9,289.7,49,289.7z"/>
		<path class="st6" d="M341.7,174.3c-4.8-1.2-5.7-5.7-7.8-9.1c-6.1-15.1-12.3-30.3-18.4-45.4c-0.3,0-0.7,0.1-1,0.1
			c-0.9,7.3-1.8,14.7-2.7,22c-0.8,6.4-1.4,12.8-2.2,19.2c-0.7,5.6-4.1,8.7-8.7,8c-4.4-0.6-6.7-4-6.1-9.7c0.9-9.4,2-18.8,3-28.1
			c0.9-7.3,1.8-14.6,2.7-21.9c0.8-5.8,1.7-11.7,2.3-17.6c0.5-4.6,0.8-9.1,6.4-10.3c5.6-1.2,7.8,2.8,9.8,7c1.8,4.4,3.6,8.7,5.4,13.1
			c4.6,11.3,9.2,22.5,13.8,33.8c0.4,0,0.7-0.1,1.1-0.1c0.8-6.8,1.7-13.6,2.5-20.4c0.8-6.7,1.5-13.5,2.3-20.2c0.8-6.2,3.9-9,8.8-8.4
			c4.6,0.6,6.7,4,6,10.1c-1.7,15.6-3.4,31.2-5.2,46.8c-0.9,7.3-1.8,14.6-2.8,21.9C349.7,172.2,348.2,173.7,341.7,174.3z"/>
		<path class="st6" d="M401.4,97.8c5.3,1.2,10.7,2.5,16,3.7c2.4,0.7,4.8,1.3,7.1,2.1c4.1,1.4,6.1,5.1,5.1,8.9
			c-1.1,3.9-4.5,6.2-8.8,5.4c-5.2-1-10.3-2.3-15.9-3.5c-3.5,15.2-7,30.2-10.4,45.1c-1.4,6-2.7,12-4.1,17.9c-1.3,5.2-4.7,7.7-9.2,6.8
			c-4.3-0.9-6.6-4.9-5.4-10.1c2.9-13.3,5.9-26.5,8.9-39.7c1.7-6.9,3.3-13.9,5.1-20.8c0.8-3.1-1-3.2-3.1-3.2c-3.8-1-7.7-1.9-11.5-2.9
			c-4.7-1.3-7.3-5.1-6.2-9.2c1.1-4.2,4.9-6.4,9.7-5.4C386.3,94.4,393.8,96.1,401.4,97.8z"/>
		<path class="st6" d="M155.5,181c-8.6,2.2-17.2,4.4-25.8,6.6c-9.6,2-11.6,0.7-14-8.6c-3.2-12.1-6.4-24.1-9.7-36.2
			c-1.2-4.8-2.4-9.7-3.6-14.5c-1.3-5.3-2.7-10.6-3.9-15.9c-1.1-4.8,0.7-8.4,5.3-9.6c10.2-2.7,20.5-5.2,30.8-7.7
			c6,1.9,7.2,3.9,6.7,10.4c-1.9,1.6-3.8,3.2-5.8,4.8c-6.9,1.6-13.7,3.3-21,5c1.5,5.1,2.8,9.6,4.2,14.1c0.4,2.2,0.9,4.5,1.4,7
			c7.2-1.8,14.1-3.5,20.9-5.3c4.4-1.1,7.6,0.4,9.3,4.4c1.8,4.2-0.6,8.5-5.5,9.9c-6.8,2-13.6,3.7-20.8,5.7c1.9,7.2,3.6,13.9,5.4,20.7
			c8.8-1.9,17-3.7,25.2-5.5c4.7,2.3,6.4,5.9,5,11C158.2,178.5,156.8,179.7,155.5,181z"/>
		<path class="st6" d="M241.2,79.5c6.6,0,13.2-0.1,19.8-0.1c3.6,0.1,7.3,0.1,10.9,0.2c5,0.2,8.2,3.1,8.1,7.5c0,4.3-3.2,7.3-8.2,7.4
			c-6.9,0.1-13.9,0-21.1,0c0,7.3,0,14.2,0,21.9c6.5,0,13.1,0,19.6,0c8.5,0,11.3,4.1,8.2,12.1c-0.5,0.5-1,1-1.5,1.5
			c-8.8,0.7-17.5,1.4-26.2,2c0,7,0,14,0,21c2.3,0,4.3,0,6.3,0c6.3,0.2,12.5,0.5,18.8,0.7c3.1,2.4,5.2,5.2,3.7,9.3
			c-1.5,4.2-5,5.3-9.1,5.2c-4.1-0.1-8.2,0.1-12.3,0.2c-6.3-0.4-12.6-0.7-18.9-1.1c-1.2-3.1-3.5-6.1-3.6-9.2
			c-0.4-17.8-0.3-35.7-0.4-53.5c0-6.3,0.1-12.6,0.1-18.9C237.3,83.5,239.2,81.5,241.2,79.5z"/>
		<path class="st6" d="M155.4,94.5c1-4.4,3.5-6.9,8.1-7.2c3.9,0.5,5.8,3.2,7.4,6.5c5.5,12.2,11.1,24.3,16.7,36.5
			c3,6.9,6,13.8,9,20.7c0.3-0.1,0.7-0.2,1-0.3c1.2-10.4,2.4-20.9,3.5-31.3c1.4-10.7,2.7-21.3,4.1-32c0.7-5,3.9-8,8.1-7.6
			c4.6,0.5,7.3,4.4,6.7,9.8c-0.3,3-0.6,5.9-0.8,8.9c-0.9,7.3-1.8,14.6-2.7,21.9c-1.7,12.8-3.2,25.6-5,38.5
			c-0.9,6.8-5.2,11.4-11.1,12.3c-6.5,1-11.7-1.9-14.8-8.3c-1.2-2.5-2.4-5.1-3.7-7.6c-1.7-3.7-3.3-7.4-5-11.1
			c-4.7-10.5-9.4-21-13.9-31.5C160.3,106.7,157.9,100.6,155.4,94.5z"/>
	</g>
</g>
</svg>
