<?xml version="1.0" encoding="utf-8"?>
<!-- Generator: Adobe Illustrator 24.2.1, SVG Export Plug-In . SVG Version: 6.00 Build 0)  -->
<svg version="1.1" id="Layer_1" xmlns="http://www.w3.org/2000/svg" xmlns:xlink="http://www.w3.org/1999/xlink" x="0px" y="0px"
	 viewBox="0 0 512 512" style="enable-background:new 0 0 512 512;" xml:space="preserve">
<style type="text/css">
	.st0{fill:#FCBF49;}
	.st1{fill:#F9A819;}
	.st2{fill:#F2D1B3;}
	.st3{fill:#F77F00;}
</style>
<path class="st0" d="M406.6,512H0V128h512v278.6L406.6,512z"/>
<path class="st1" d="M0,128h512v64H0V128z"/>
<path class="st2" d="M96,64H64V16c0-8.8,7.2-16,16-16s16,7.2,16,16V64z"/>
<path class="st2" d="M448,64h-32V16c0-8.8,7.2-16,16-16s16,7.2,16,16V64z"/>
<path class="st1" d="M406.6,406.6V512L512,406.6H406.6z"/>
<path class="st3" d="M512,160H0V80c0-17.7,14.3-32,32-32h448c17.7,0,32,14.3,32,32V160z"/>
<path class="st3" d="M336.7,454.8L256,413.9l-80.7,40.9l15.4-86.7l-66-62l91.2-12.8l40.1-78.4l40.1,78.4l91.2,12.8l-66,62
	L336.7,454.8z"/>
</svg>
