<?xml version="1.0" encoding="utf-8"?>
<!-- Generator: Adobe Illustrator 24.2.1, SVG Export Plug-In . SVG Version: 6.00 Build 0)  -->
<svg version="1.1" id="Layer_1" xmlns="http://www.w3.org/2000/svg" xmlns:xlink="http://www.w3.org/1999/xlink" x="0px" y="0px"
	 viewBox="0 0 512 512" style="enable-background:new 0 0 512 512;" xml:space="preserve">
<style type="text/css">
	.st0{fill:#FFFFFF;}
</style>
<path class="st0" d="M159.3,291.5C159.3,291.5,159.3,291.5,159.3,291.5c-3.3,0-6,2.7-6,6V460c0,20,16.2,36.2,36.2,36.2h223.6
	c20,0,36.2-16.2,36.2-36.2V308.1l21.1,13.4c0,0,0,0,0,0c2.8,1.8,6.5,1,8.3-1.8l22.6-35.6c10.7-16.9,5.7-39.3-11.1-50l-34.5-21.9
	c15.2-6.5,23.5-22.9,20-39c-4.1-18.5-22.5-30.2-41-26l-56,12.5l-16.7-75.1c0-0.1,0-0.2-0.1-0.3c-4.2-18.5-22.6-30-41.1-25.8
	s-30,22.6-25.8,41.1l2.5,12.2l-32.2-20.5c-16.9-10.7-39.3-5.7-50,11.1l-22.6,35.6c0,0,0,0,0,0c-1.8,2.8-1,6.5,1.8,8.3l228.6,145.3
	H159.3L159.3,291.5z M333.1,148.3l-32.4,51l-94.5-60.1l19.4-30.6c3.4-5.4,8.9-9.3,15.2-10.7c1.7-0.4,3.5-0.6,5.3-0.6
	c4.6,0,9.1,1.3,13,3.8L333.1,148.3z M365.4,154.6l-53.7-34.2l-4.9-23.6c-2.7-12,4.9-24,16.9-26.7c12-2.7,24,4.9,26.7,16.9
	L365.4,154.6z M398,189.6l-32.4,51l-54.8-34.8l32.4-51L398,189.6z M447.1,202.3l-4.4,1l-53.8-33.7l48.5-10.8
	c5.8-1.3,11.8-0.2,16.8,3c10.4,6.6,13.5,20.4,6.9,30.8C457.9,197.5,452.8,201,447.1,202.3z M375.7,247l32.4-51l75.7,48.1
	c11.3,7.2,14.6,22.2,7.5,33.5l-19.4,30.6L375.7,247z M355.4,303.5h81.9V460c0,13.4-10.9,24.2-24.2,24.2h-57.7L355.4,303.5z
	 M279.2,303.5h64.3v180.7h-64.3V303.5z M165.3,303.5h101.9v180.7h-77.7c-13.4,0-24.2-10.9-24.2-24.2V303.5z"/>
<path class="st0" d="M80,248.8c-0.9,0.9-1.6,2.1-1.8,3.4c-0.5,3.3,1.8,6.3,5.1,6.8l16.8,2.4l7.5,15.2c0.6,1.2,1.5,2.1,2.7,2.7
	c3,1.5,6.6,0.2,8-2.7l7.5-15.2l16.8-2.4c1.3-0.2,2.5-0.8,3.4-1.8c2.3-2.4,2.3-6.2-0.1-8.5L133.9,237l2.9-16.7c0.2-1.3,0-2.6-0.6-3.8
	c-1.5-2.9-5.2-4.1-8.1-2.5l-15,7.9l-15-7.9c-1.2-0.6-2.5-0.8-3.8-0.6c-3.3,0.6-5.5,3.7-4.9,6.9l2.9,16.7L80,248.8z M97.1,248.9
	l5.7-5.6c1.4-1.4,2.1-3.4,1.7-5.3l-1.3-7.9l7.1,3.7c1.7,0.9,3.8,0.9,5.6,0l7.1-3.7l-1.3,7.9c-0.3,1.9,0.3,3.9,1.7,5.3l5.7,5.6
	l-7.9,1.1c-2,0.3-3.6,1.5-4.5,3.3l-3.5,7.2l-3.5-7.2c-0.9-1.8-2.6-3-4.5-3.3L97.1,248.9z"/>
<path class="st0" d="M23.2,154.3c-1.3,0.3-2.4,1-3.3,2.1c-2.1,2.6-1.7,6.4,0.9,8.4L34,175.5l-1.3,16.9c-0.1,1.3,0.2,2.6,1,3.7
	c1.8,2.8,5.5,3.6,8.3,1.7l14.2-9.3l15.7,6.5c1.2,0.5,2.6,0.6,3.8,0.2c3.2-0.9,5.1-4.2,4.2-7.4l-4.4-16.4l11-12.9
	c0.9-1,1.4-2.3,1.4-3.6c0.2-3.3-2.4-6.1-5.7-6.3l-17-0.9l-8.9-14.5c-0.7-1.1-1.7-2-3-2.5c-3.1-1.2-6.6,0.4-7.7,3.5l-6.1,15.9
	L23.2,154.3L23.2,154.3z M37.8,163.1l7.8-1.9c1.9-0.5,3.5-1.8,4.2-3.7l2.8-7.5l4.2,6.8c1,1.7,2.8,2.7,4.8,2.8l8,0.4l-5.2,6.1
	c-1.3,1.5-1.7,3.5-1.2,5.4l2.1,7.7l-7.4-3c-1.8-0.8-3.9-0.6-5.6,0.5l-6.7,4.4l0.6-8c0.1-2-0.7-3.9-2.2-5.1L37.8,163.1z"/>
<path class="st0" d="M122.4,43.8c0.9-1,1.4-2.3,1.4-3.6c0.2-3.3-2.4-6.1-5.7-6.3l-17-0.9l-8.9-14.5c-0.7-1.1-1.7-2-3-2.5
	c-3.1-1.2-6.6,0.4-7.7,3.5l-6,15.9l-16.5,4c-1.3,0.3-2.4,1-3.3,2.1c-2.1,2.6-1.7,6.4,0.9,8.4l13.2,10.7l-1.3,16.9
	c-0.1,1.3,0.2,2.6,1,3.7c1.8,2.8,5.5,3.6,8.3,1.7l14.2-9.3l15.7,6.5c1.2,0.5,2.6,0.6,3.8,0.2c3.2-0.9,5.1-4.2,4.2-7.4l-4.4-16.4
	L122.4,43.8z M105.4,45.3l-5.2,6.1c-1.3,1.5-1.7,3.5-1.2,5.5l2.1,7.7l-7.4-3c-1.8-0.8-3.9-0.6-5.6,0.5l-6.7,4.4l0.6-8
	c0.1-2-0.7-3.9-2.2-5.1l-6.2-5l7.8-1.9c1.9-0.5,3.5-1.8,4.2-3.7l2.8-7.5l4.2,6.8c1,1.7,2.8,2.7,4.8,2.8L105.4,45.3z"/>
<path class="st0" d="M220.3,237.8c-12.4-7.8-33.4-15.6-62.4-8.5c-3.2,0.8-5.1,4-4.3,7.2c0.8,3.2,4,5.2,7.2,4.5
	c47.3-11.7,69,21.1,69.9,22.5c1.8,2.8,5.5,3.6,8.3,1.9c2.8-1.8,3.6-5.5,1.9-8.3C240.4,256.7,233.8,246.4,220.3,237.8L220.3,237.8z"
	/>
<path class="st0" d="M106.4,174.3c30-12.5,57.1-9.7,80.4,8.2c10.8,8.5,19.8,19,26.4,31.1c1.5,3,5.1,4.2,8,2.7c3-1.5,4.2-5.1,2.7-8
	c-7.4-13.7-17.6-25.7-29.9-35.2c-18.5-14.3-49.6-27.5-92.3-9.8c-3.1,1.3-4.5,4.8-3.2,7.8C99.8,174.1,103.4,175.6,106.4,174.3
	L106.4,174.3z"/>
<path class="st0" d="M173.8,129.8c-1-3.1-4.4-4.9-7.5-3.9c-0.4,0.1-27.8,8.6-47.7-3.2c-10.5-6.2-17.3-17.2-20.2-32.7c0,0,0,0,0,0
	c-0.6-3.3-3.8-5.4-7-4.7s-5.4,3.8-4.7,7c3.6,19,12.3,32.7,25.9,40.8c10.4,6.2,22,8,32,8c8.6,0,17.2-1.2,25.4-3.7
	C173.1,136.4,174.9,133,173.8,129.8L173.8,129.8z"/>
<path class="st0" d="M264,274.1C264,274.1,264,274.1,264,274.1c0-6-4.8-10.8-10.8-10.8s-10.8,4.8-10.8,10.8s4.8,10.8,10.8,10.8
	C259.1,284.9,263.9,280,264,274.1z M254.3,274.1C254.3,274.1,254.3,274.1,254.3,274.1c0,0.7-0.5,1.2-1.2,1.2c-0.7,0-1.2-0.5-1.2-1.2
	c0-0.7,0.5-1.2,1.2-1.2C253.8,272.9,254.3,273.4,254.3,274.1z"/>
<path class="st0" d="M178.9,78.1c0-6-4.8-10.8-10.8-10.8s-10.8,4.8-10.8,10.8s4.8,10.8,10.8,10.8C174.1,88.9,178.9,84,178.9,78.1z
	 M169.3,78.1C169.3,78.1,169.3,78.1,169.3,78.1c0,0.7-0.5,1.2-1.2,1.2c-0.7,0-1.2-0.5-1.2-1.2c0-0.7,0.5-1.2,1.2-1.2
	C168.8,76.9,169.3,77.4,169.3,78.1z"/>
<path class="st0" d="M5,91.4C5,91.4,5,91.4,5,91.4c0,6,4.8,10.8,10.8,10.8s10.8-4.8,10.8-10.8s-4.8-10.8-10.8-10.8
	C9.9,80.6,5,85.5,5,91.4z M14.6,91.4c0-0.7,0.5-1.2,1.2-1.2c0.7,0,1.2,0.5,1.2,1.2c0,0.7-0.5,1.2-1.2,1.2
	C15.2,92.6,14.6,92.1,14.6,91.4z"/>
<path class="st0" d="M268.4,234.8C268.4,234.8,268.4,234.8,268.4,234.8c6,0,10.8-4.8,10.8-10.8s-4.8-10.8-10.8-10.8
	s-10.8,4.8-10.8,10.8C257.6,230,262.4,234.8,268.4,234.8z M268.4,225.2c-0.7,0-1.2-0.5-1.2-1.2c0-0.7,0.5-1.2,1.2-1.2
	c0.7,0,1.2,0.5,1.2,1.2C269.6,224.7,269,225.2,268.4,225.2L268.4,225.2z"/>
<path class="st0" d="M22.8,241.6c0,6,4.8,10.8,10.8,10.8s10.8-4.8,10.8-10.8s-4.8-10.8-10.8-10.8C27.6,230.8,22.8,235.7,22.8,241.6z
	 M32.4,241.6c0-0.7,0.5-1.2,1.2-1.2c0.7,0,1.2,0.5,1.2,1.2s-0.5,1.2-1.2,1.2C33,242.8,32.4,242.3,32.4,241.6z"/>
</svg>
