<?xml version="1.0" encoding="utf-8"?>
<!-- Generator: Adobe Illustrator 24.2.1, SVG Export Plug-In . SVG Version: 6.00 Build 0)  -->
<svg version="1.1" id="Capa_1" xmlns="http://www.w3.org/2000/svg" xmlns:xlink="http://www.w3.org/1999/xlink" x="0px" y="0px"
	 viewBox="0 0 512 512" style="enable-background:new 0 0 512 512;" xml:space="preserve">
<style type="text/css">
	.st0{fill:#FCBF49;}
	.st1{fill:#D62828;}
	.st2{fill:#F77F00;}
</style>
<g>
	<path class="st0" d="M214.4,64.5c0,0-64.5-64.5-139.4-64.5C31.2,0,14.6,29.1,14.6,58.3s17.7,58.3,50,58.3h149.9V64.5z"/>
	<path class="st0" d="M214.4,64.5c0,0-64.5-64.5-139.4-64.5C31.2,0,14.6,29.1,14.6,58.3s17.7,58.3,50,58.3h149.9V64.5z"/>
	<path class="st0" d="M297.6,64.5c0,0,64.5-64.5,139.4-64.5c43.7,0,60.4,29.1,60.4,58.3s-17.7,58.3-50,58.3H297.6V64.5z"/>
</g>
<path class="st1" d="M492,199.8H20c-11,0-20-9-20-20v-43.3c0-11,9-20,20-20h472c11,0,20,9,20,20v43.3C512,190.9,503,199.8,492,199.8
	z"/>
<path class="st1" d="M484.9,116.6v83.3h6.5c11.4,0,20.6-9.2,20.6-20.6v-42c0-11.4-9.2-20.6-20.6-20.6L484.9,116.6L484.9,116.6z"/>
<path class="st0" d="M193.6,116.6h124.9v83.3H193.6V116.6z"/>
<path class="st1" d="M464.9,512H47.1c-11,0-20-9-20-20V199.8h457.9V492C484.9,503,476,512,464.9,512z"/>
<path class="st1" d="M27.1,199.8h457.9v25H27.1L27.1,199.8z"/>
<path class="st0" d="M214.4,199.8h83.3V512h-83.3L214.4,199.8z"/>
<path class="st2" d="M214.4,199.8h83.3v25h-83.3L214.4,199.8z"/>
<path class="st2" d="M326.8,95.7c-4.3,0-8-2.7-9.6-6.4c2.7-1,5.6-2,8.6-2.8c4.1-1.2,6.5-5.4,5.3-9.5s-5.4-6.5-9.5-5.3
	c-1.8,0.5-3.5,1-5.2,1.6V48.4c-11.9,9.3-18.7,16.1-18.7,16.1v52h149.9c17.4,0,30.5-8.5,39-20.8L326.8,95.7z"/>
<path class="st2" d="M195.6,48.4v24.8c-1.7-0.6-3.4-1.1-5.2-1.6c-4.1-1.2-8.4,1.2-9.5,5.3c-1.2,4.1,1.2,8.4,5.3,9.5
	c3,0.8,5.9,1.8,8.6,2.8c-1.6,3.8-5.3,6.4-9.6,6.4H25.6c8.4,12.4,21.6,20.8,39,20.8h149.9v-52C214.4,64.5,207.5,57.6,195.6,48.4
	L195.6,48.4z"/>
<path class="st0" d="M297.6,116.6h-83.3V64c0-7.7,6.3-14,14-14h55.3c7.7,0,14,6.3,14,14V116.6z"/>
<path class="st2" d="M214.4,95.7h83.3v20.8h-83.3L214.4,95.7z"/>
</svg>
