<svg id="Layer_1" data-name="Layer 1" xmlns="http://www.w3.org/2000/svg" viewBox="0 0 600 600"><defs><style>.cls-1{fill:#f77f00;}.cls-2{fill:#fff;}.cls-3{fill:#fcbf49;}.cls-4{fill:#d62828;}</style></defs><path class="cls-1" d="M593.92,300h0a6,6,0,0,1-6-5.88c-3.09-154.38-127.67-278.95-282-282a6,6,0,0,1-5.88-6h0a6,6,0,0,1,6.14-6c160.81,3.23,290.57,133,293.8,293.8A6,6,0,0,1,593.92,300Z"/><circle class="cls-2" cx="300" cy="300" r="272.66"/><path class="cls-3" d="M142.72,31.92c-2.1-5.14-7.54-8.79-11.18-12.78-.8-1.08-2.73,0-2,1.47a58.37,58.37,0,0,0,11.19,12.78C141.82,33.92,143.14,32.94,142.72,31.92Z"/><path class="cls-3" d="M156,62.22c.84-5.31-2-10.54-5.12-14.26a.82.82,0,0,0-1.32,1,33.46,33.46,0,0,1,3.16,7c.62,2.22.86,4.38,1.48,6.6C154.22,63.53,155.8,63.36,156,62.22Z"/><path class="cls-3" d="M155.6,97.63a17.19,17.19,0,0,0,1.86-8.07,36.27,36.27,0,0,0,.13-8.12.68.68,0,1,0-1.36,0,36.24,36.24,0,0,1-1,7.8c-.42,2.66-1.6,5.21-2,7.86C152.75,98.4,154.81,98.88,155.6,97.63Z"/><path class="cls-3" d="M145.14,112.08a1.1,1.1,0,1,0-2-.86c-.78,1.25-1.62,2.88-2.4,4.13-1.22,1.58-2.93,2.5-3.77,4.13a1,1,0,0,0,1.12,1.51C141.31,120.27,143.67,115.17,145.14,112.08Z"/><path class="cls-3" d="M121.91,138.34a38.3,38.3,0,0,0,6.07-5.17c.94-1,0-2.33-1.12-1.51a63.81,63.81,0,0,0-5.89,4c-2,1.47-4.28,2.51-5.79,4.63a1.3,1.3,0,0,0,1.44,1.94A18.08,18.08,0,0,0,121.91,138.34Z"/><path class="cls-3" d="M98.68,147.54a56.33,56.33,0,0,1-8.85,1.88c-2.79.4-5.89.36-8.25,1.77-1.27.61-.37,2.28.56,2.6,2.82.58,6.1-.52,9-1.29a32.76,32.76,0,0,0,8.21-2.74C100.78,149,99.94,146.94,98.68,147.54Z"/><path class="cls-3" d="M74.51,150.42c-2.5-.16-5.23-.14-7.51-.46a11.89,11.89,0,0,1-3.52-1.06c-1.09-.54-1.41-1-2.77-1a1.52,1.52,0,0,0-1.28,1.95c1,2.27,4.26,2.52,6.55,2.84a34,34,0,0,0,8.67-.75C75.47,151.71,75.49,150.36,74.51,150.42Z"/><path class="cls-3" d="M56.67,137.88a7.53,7.53,0,0,1-4.26-2.52c-.8-1.08-1.54-2.54-3.06-2.75a1.35,1.35,0,0,0-1.54,1.15c-.61,3.79,5.68,5.82,8.4,5.8C57.19,139.51,57.6,138.21,56.67,137.88Z"/><path class="cls-3" d="M51.06,120.64a30.15,30.15,0,0,1-2.68-6.37c-.56-2.6.34-4.61,1.31-7,.4-1.31-.78-2.44-2.27-1.67-6.11,4.19-1.77,12.35,2.1,16.18C50.22,122.27,51.54,121.29,51.06,120.64Z"/><path class="cls-3" d="M57.6,99.06c2-4.17,5.65-6.19,8.7-9.46A1.11,1.11,0,0,0,65,87.88a18.39,18.39,0,0,0-8.88,10.6C55.8,99.4,56.88,99.93,57.6,99.06Z"/><path class="cls-3" d="M96.14,71.82c-6.63-1.11-12.77,2.11-17.68,6.09-.88.65.24,2.16,1.12,1.51a29.05,29.05,0,0,1,16.2-5.33A1.15,1.15,0,1,0,96.14,71.82Z"/><path class="cls-3" d="M121.29,72.56c-4.86-2.41-10.85-2.65-16.36-2.25-1.36,0-1.12,2.17.08,2,5.23.14,10.27,1.42,15.38,2.31C121.91,74.78,122.37,73.1,121.29,72.56Z"/><path class="cls-3" d="M143.52,75.82c-2.25-3-7.45-4.52-11.09-4.82a1.15,1.15,0,1,0-.37,2.27A17.41,17.41,0,0,1,137.43,75a43.94,43.94,0,0,0,5,2.63C143.37,77.93,144,76.46,143.52,75.82Z"/><path class="cls-3" d="M174.22,97.87c-1.28-1.73-3.22-3-4.72-4.53-2.05-1.83-3.87-3.82-6.19-5.11A1.13,1.13,0,0,0,161.87,90a69.87,69.87,0,0,1,5.36,5.39c1.5,1.56,3.1,3.72,5.33,4.41A1.29,1.29,0,0,0,174.22,97.87Z"/><path class="cls-3" d="M190.67,115.44c-1.42-3.29-4.64-6.26-7.11-9.11a1,1,0,1,0-1.54,1.14c2,3.18,3.76,6.91,6.66,9.44A1.26,1.26,0,0,0,190.67,115.44Z"/><path class="cls-3" d="M204.45,136.33c-.68-1.84-2-3.19-3.14-4.7a43,43,0,0,0-3.74-4.58c-.8-1.08-2.56.23-1.76,1.31a42.1,42.1,0,0,1,3.3,4.91c1.12,1.51,2,3.18,3.58,4.37C203.33,138.5,204.65,137.52,204.45,136.33Z"/><path class="cls-3" d="M217.07,154.73a121.57,121.57,0,0,0,1.54-14.52c.16-3.46,1.06-9.15-1.24-11.79a2,2,0,0,0-3.38.5c-1.25,2.93-.33,6.93-.21,9.85a110.75,110.75,0,0,1-.89,11.7,172.43,172.43,0,0,0-15.83-8c-1.62-.8-3.41,1.86-1.85,3,5.77,4.09,12.82,6.22,18.08,11C214.47,157.66,216.61,156.41,217.07,154.73Z"/><path class="cls-4" d="M356.57,74.15a3.11,3.11,0,0,0-1.72-5.31l-10.34-1.5A.61.61,0,0,1,344,67l-4.63-9.36a3.11,3.11,0,0,0-5.58,0L329.2,67a.62.62,0,0,1-.47.34l-10.34,1.5a3.11,3.11,0,0,0-1.72,5.31l7.48,7.3a.65.65,0,0,1,.18.55l-1.77,10.3a3.12,3.12,0,0,0,4.52,3.28l9.25-4.86a.6.6,0,0,1,.58,0l9.25,4.86a3.14,3.14,0,0,0,1.45.36,3.12,3.12,0,0,0,3.07-3.64L348.91,82a.65.65,0,0,1,.18-.55Zm-10.11,8.27,1.76,10.3a.6.6,0,0,1-.25.61.58.58,0,0,1-.65,0l-9.25-4.86a3.1,3.1,0,0,0-2.9,0l-9.25,4.86a.58.58,0,0,1-.65,0,.6.6,0,0,1-.25-.61l1.76-10.3a3.11,3.11,0,0,0-.89-2.76l-7.48-7.29a.62.62,0,0,1,.34-1.06l10.34-1.51a3.1,3.1,0,0,0,2.35-1.7l4.62-9.37a.62.62,0,0,1,1.12,0h0l4.62,9.37a3.1,3.1,0,0,0,2.35,1.7l10.34,1.51a.62.62,0,0,1,.34,1.06l-7.48,7.29A3.11,3.11,0,0,0,346.46,82.42Z"/><path class="cls-4" d="M351.18,57.63a1.24,1.24,0,0,0-1.74.27l-1.32,1.82a1.25,1.25,0,0,0,2,1.47l1.33-1.82A1.25,1.25,0,0,0,351.18,57.63Z"/><path class="cls-4" d="M325.12,59.71l-1.33-1.82a1.25,1.25,0,0,0-2,1.47l1.32,1.82a1.22,1.22,0,0,0,1,.51,1.24,1.24,0,0,0,.73-.23A1.26,1.26,0,0,0,325.12,59.71Z"/><path class="cls-4" d="M317.57,83.86a1.25,1.25,0,0,0-1.57-.81l-2.15.7a1.25,1.25,0,0,0,.39,2.43,1.21,1.21,0,0,0,.38-.06l2.15-.69A1.26,1.26,0,0,0,317.57,83.86Z"/><path class="cls-4" d="M336.62,97.69a1.25,1.25,0,0,0-1.25,1.25v2.25a1.25,1.25,0,0,0,2.5,0V98.94A1.25,1.25,0,0,0,336.62,97.69Z"/><path class="cls-4" d="M359.38,83.75l-2.14-.69a1.24,1.24,0,0,0-1.57.8,1.26,1.26,0,0,0,.8,1.57l2.14.69a1.32,1.32,0,0,0,.39.06,1.25,1.25,0,0,0,.38-2.43Z"/></svg>