<svg xmlns="http://www.w3.org/2000/svg" xmlns:xlink="http://www.w3.org/1999/xlink" viewBox="0 0 3349.35 541.99"><defs><style>.cls-1{fill:#fff;}.cls-2{clip-path:url(#clip-path);}.cls-3{clip-path:url(#clip-path-2);}.cls-4{clip-path:url(#clip-path-3);}.cls-5{clip-path:url(#clip-path-4);}.cls-6{clip-path:url(#clip-path-5);}.cls-7{clip-path:url(#clip-path-6);}.cls-8{clip-path:url(#clip-path-7);}.cls-9{clip-path:url(#clip-path-8);}.cls-10{clip-path:url(#clip-path-9);}.cls-11{clip-path:url(#clip-path-10);}</style><clipPath id="clip-path"><path class="cls-1" d="M728.3,136.22h77.24V247.75Q782.17,264,751.28,272.62a223.85,223.85,0,0,1-60.66,8.67q-42.2,0-75.73-17.52t-52.56-49q-19-31.46-19-71.4t19-71.4q19-31.46,53.12-49T692.51,5.48q38.81,0,69.51,13a130.59,130.59,0,0,1,51.06,37.87l-56.9,50.11q-24.85-29-59.15-29-29.38,0-46.72,17.71T633,143.38q0,29.77,17.15,47.85t45.78,18.09a83.77,83.77,0,0,0,32.4-6.4Z"/></clipPath><clipPath id="clip-path-2"><path class="cls-1" d="M1040.28,208.19v67.07H821V11.51h214.39V78.58h-127v30.89h111.53v64.06H908.4v34.66Z"/></clipPath><clipPath id="clip-path-3"><path class="cls-1" d="M1311.94,11.51V275.26h-73.1L1138.62,155.44V275.26H1052V11.51h73.09l100.23,119.82V11.51Z"/></clipPath><clipPath id="clip-path-4"><path class="cls-1" d="M1544,208.19v67.07h-219.3V11.51h214.4V78.58h-127v30.89h111.53v64.06H1412.16v34.66Z"/></clipPath><clipPath id="clip-path-5"><path class="cls-1" d="M1668.75,208.94h-24.12v66.32h-88.92V11.51h127q36.54,0,63.68,12t41.82,34.67q14.7,22.6,14.69,52.75,0,28.26-12.81,49.36t-36.92,33.53l55.39,81.39h-95Zm35.42-120.76q-9-8.1-27.13-8.1h-32.41v61.8H1677q18.07,0,27.13-8.11t9-22.79Q1713.21,96.28,1704.17,88.18Z"/></clipPath><clipPath id="clip-path-6"><path class="cls-1" d="M2023.68,229.29H1923.46l-17.71,46h-90.43L1930.61,11.51H2018l115.3,263.75h-91.94Zm-24.49-64-25.62-66.32L1948,165.24Z"/></clipPath><clipPath id="clip-path-7"><path class="cls-1" d="M2184.19,80.46H2107V11.51h243.41V80.46h-77.25v194.8h-88.92Z"/></clipPath><clipPath id="clip-path-8"><path class="cls-1" d="M2365.8,11.51h88.92V275.26H2365.8Z"/></clipPath><clipPath id="clip-path-9"><path class="cls-1" d="M2544.39,263.58q-33.9-17.71-53.12-49.17t-19.22-71q0-39.55,19.22-71t53.12-49.17q33.92-17.71,76.49-17.71t76.49,17.71q33.91,17.72,53.13,49.17t19.21,71q0,39.57-19.21,71t-53.13,49.17q-33.91,17.7-76.49,17.71T2544.39,263.58Zm106.45-62.36a58,58,0,0,0,21.28-23q7.92-14.9,7.92-34.86t-7.92-34.85a58,58,0,0,0-21.28-23,59.38,59.38,0,0,0-59.91,0,58,58,0,0,0-21.29,23q-7.92,14.89-7.91,34.85t7.91,34.86a58,58,0,0,0,21.29,23,59.44,59.44,0,0,0,59.91,0Z"/></clipPath><clipPath id="clip-path-10"><path class="cls-1" d="M3047,11.51V275.26h-73.1L2873.7,155.44V275.26H2787V11.51h73.1l100.22,119.82V11.51Z"/></clipPath></defs><g id="Layer_2" data-name="Layer 2"><g id="Layer_8" data-name="Layer 8"><polygon class="cls-1" points="362.67 254.49 181.33 435.82 254.49 508.96 508.96 254.49 254.49 0 181.33 73.15 362.67 254.49"/><polygon class="cls-1" points="193.02 254.49 96.51 351 158.61 413.09 317.23 254.49 158.61 95.88 96.51 157.98 193.02 254.49"/><rect class="cls-1" x="21.61" y="202.31" width="104.34" height="104.34" transform="translate(-158.34 126.71) rotate(-45)"/><path class="cls-1" d="M0,254.49l73.78,73.78,73.79-73.78L73.78,180.7Z"/><rect class="cls-1" x="21.61" y="202.31" width="104.34" height="104.34" transform="translate(-158.34 126.71) rotate(-45)"/><path class="cls-1" d="M2646.38,399.1q0,15.93-8.37,23.13t-31.62,7.21h-34.18V371.32h34.88q22.08,0,30.69,5.93T2646.38,399.1Z"/><path class="cls-1" d="M2833.54,379.69l-29.53,67h59.06Zm0,0-29.53,67h59.06ZM2491.66,314V542h857V314Zm155.42,195-38.83-54.63h-36V509h-27.43V346.44h60.45q37.2,0,53.24,12.56t16,40.22q0,40.21-35.1,50.68L2682,509Zm243.42,0-16.27-37h-81.38l-16.27,37h-29.3l71.61-162.51h29.3L2919.79,509Zm119.15-41.5q16.62,16.64,39.41,16.63,14.18,0,24.41-4.77t21.39-15.23l17.67,18.14q-25.82,28.59-62.66,28.6t-61.14-23.72q-24.3-23.72-24.3-60t24.76-60.45q24.76-24.18,62.54-24.18t63.12,27.9l-17.43,19.06q-11.64-11.16-22-15.57t-24.3-4.42q-24.65,0-41.38,15.92T2993,426.07Q2993,450.84,3009.65,467.45Zm290.5,41.5H3183.21V346.44h114.15v25.81h-86.72v43h77.89v24.41h-77.89v43.48h89.51ZM2804,446.65h59.06l-29.53-67Zm29.53-67-29.53,67h59.06Zm0,0-29.53,67h59.06Z"/><path class="cls-1" d="M728.3,136.22h77.24V247.75Q782.17,264,751.28,272.62a223.85,223.85,0,0,1-60.66,8.67q-42.2,0-75.73-17.52t-52.56-49q-19-31.46-19-71.4t19-71.4q19-31.46,53.12-49T692.51,5.48q38.81,0,69.51,13a130.59,130.59,0,0,1,51.06,37.87l-56.9,50.11q-24.85-29-59.15-29-29.38,0-46.72,17.71T633,143.38q0,29.77,17.15,47.85t45.78,18.09a83.77,83.77,0,0,0,32.4-6.4Z"/><g class="cls-2"><polygon class="cls-1" points="813.08 40 771.56 5.48 813.08 5.48 813.08 40"/><polygon class="cls-1" points="813.08 97.18 702.79 5.48 771.56 5.48 813.08 40 813.08 97.18"/><polygon class="cls-1" points="813.08 154.36 634.02 5.48 702.79 5.48 813.08 97.18 813.08 154.36"/><polygon class="cls-1" points="813.08 211.54 591.86 27.61 610.26 5.48 634.02 5.48 813.08 154.36 813.08 211.54"/><polygon class="cls-1" points="813.08 241.82 799.86 257.72 563.75 61.42 591.86 27.61 813.08 211.54 813.08 241.82"/><polygon class="cls-1" points="799.86 257.72 780.26 281.29 759.43 281.29 543.3 101.59 543.3 86.02 563.75 61.42 799.86 257.72"/><polygon class="cls-1" points="690.65 281.29 543.3 158.77 543.3 101.59 759.43 281.29 690.65 281.29"/><polygon class="cls-1" points="621.88 281.29 543.3 215.95 543.3 158.77 690.65 281.29 621.88 281.29"/><polygon class="cls-1" points="553.11 281.29 543.3 273.13 543.3 215.95 621.88 281.29 553.11 281.29"/><polygon class="cls-1" points="543.3 273.13 553.11 281.29 543.3 281.29 543.3 273.13"/></g><path class="cls-1" d="M1040.28,208.19v67.07H821V11.51h214.39V78.58h-127v30.89h111.53v64.06H908.4v34.66Z"/><g class="cls-3"><polygon class="cls-1" points="1040.28 57.36 985.13 11.51 1040.28 11.51 1040.28 57.36"/><polygon class="cls-1" points="1040.28 114.54 916.36 11.51 985.13 11.51 1040.28 57.36 1040.28 114.54"/><polygon class="cls-1" points="1040.28 171.72 847.59 11.51 916.36 11.51 1040.28 114.54 1040.28 171.72"/><polygon class="cls-1" points="1040.28 228.9 820.99 46.57 820.99 11.51 847.59 11.51 1040.28 171.72 1040.28 228.9"/><polygon class="cls-1" points="1027.26 275.26 820.99 103.75 820.99 46.57 1040.28 228.9 1040.28 275.26 1027.26 275.26"/><polygon class="cls-1" points="958.49 275.26 820.99 160.93 820.99 103.75 1027.26 275.26 958.49 275.26"/><polygon class="cls-1" points="889.72 275.26 820.99 218.11 820.99 160.93 958.49 275.26 889.72 275.26"/><polygon class="cls-1" points="820.99 218.11 889.72 275.26 820.99 275.26 820.99 218.11"/></g><path class="cls-1" d="M1311.94,11.51V275.26h-73.1L1138.62,155.44V275.26H1052V11.51h73.09l100.23,119.82V11.51Z"/><g class="cls-4"><polygon class="cls-1" points="1311.94 54.51 1260.21 11.51 1311.94 11.51 1311.94 54.51"/><polygon class="cls-1" points="1311.94 111.69 1191.44 11.51 1260.21 11.51 1311.94 54.51 1311.94 111.69"/><polygon class="cls-1" points="1311.94 168.87 1122.67 11.51 1191.44 11.51 1311.94 111.69 1311.94 168.87"/><polygon class="cls-1" points="1311.94 226.05 1053.9 11.51 1122.67 11.51 1311.94 168.87 1311.94 226.05"/><polygon class="cls-1" points="1302.35 275.26 1051.96 67.07 1051.96 11.51 1053.9 11.51 1311.94 226.05 1311.94 275.26 1302.35 275.26"/><polygon class="cls-1" points="1233.58 275.26 1051.96 124.25 1051.96 67.07 1302.35 275.26 1233.58 275.26"/><polygon class="cls-1" points="1164.81 275.26 1051.96 181.43 1051.96 124.25 1233.58 275.26 1164.81 275.26"/><polygon class="cls-1" points="1096.03 275.26 1051.96 238.61 1051.96 181.43 1164.81 275.26 1096.03 275.26"/><polygon class="cls-1" points="1051.96 238.61 1096.03 275.26 1051.96 275.26 1051.96 238.61"/></g><path class="cls-1" d="M1544,208.19v67.07h-219.3V11.51h214.4V78.58h-127v30.89h111.53v64.06H1412.16v34.66Z"/><g class="cls-5"><polygon class="cls-1" points="1544.04 18.77 1535.3 11.51 1544.04 11.51 1544.04 18.77"/><polygon class="cls-1" points="1544.04 75.95 1466.53 11.51 1535.3 11.51 1544.04 18.77 1544.04 75.95"/><polygon class="cls-1" points="1544.04 133.13 1397.76 11.51 1466.53 11.51 1544.04 75.95 1544.04 133.13"/><polygon class="cls-1" points="1544.04 190.31 1328.99 11.51 1397.76 11.51 1544.04 133.13 1544.04 190.31"/><polygon class="cls-1" points="1544.04 247.49 1324.74 65.16 1324.74 11.51 1328.99 11.51 1544.04 190.31 1544.04 247.49"/><polygon class="cls-1" points="1508.66 275.26 1324.74 122.34 1324.74 65.16 1544.04 247.49 1544.04 275.26 1508.66 275.26"/><polygon class="cls-1" points="1439.89 275.26 1324.74 179.52 1324.74 122.34 1508.66 275.26 1439.89 275.26"/><polygon class="cls-1" points="1371.12 275.26 1324.74 236.7 1324.74 179.52 1439.89 275.26 1371.12 275.26"/><polygon class="cls-1" points="1324.74 236.7 1371.12 275.26 1324.74 275.26 1324.74 236.7"/></g><path class="cls-1" d="M1668.75,208.94h-24.12v66.32h-88.92V11.51h127q36.54,0,63.68,12t41.82,34.67q14.7,22.6,14.69,52.75,0,28.26-12.81,49.36t-36.92,33.53l55.39,81.39h-95Zm35.42-120.76q-9-8.1-27.13-8.1h-32.41v61.8H1677q18.07,0,27.13-8.11t9-22.79Q1713.21,96.28,1704.17,88.18Z"/><g class="cls-6"><polygon class="cls-1" points="1713.21 102.25 1686.55 80.08 1713.21 80.08 1713.21 102.25"/><polygon class="cls-1" points="1713.21 127.88 1701.57 141.88 1692.1 141.88 1644.63 102.41 1644.63 80.08 1686.55 80.08 1713.21 102.25 1713.21 127.88"/><polygon class="cls-1" points="1644.63 102.41 1692.1 141.88 1644.63 141.88 1644.63 102.41"/><polygon class="cls-1" points="1808.54 67.15 1741.62 11.51 1808.54 11.51 1808.54 67.15"/><polygon class="cls-1" points="1808.54 124.33 1672.85 11.51 1741.62 11.51 1808.54 67.15 1808.54 124.33"/><polygon class="cls-1" points="1808.54 181.51 1604.07 11.51 1672.85 11.51 1808.54 124.33 1808.54 181.51"/><polygon class="cls-1" points="1808.54 238.69 1555.71 28.48 1555.71 11.51 1604.07 11.51 1808.54 181.51 1808.54 238.69"/><polygon class="cls-1" points="1783.75 275.26 1555.71 85.66 1555.71 28.48 1808.54 238.69 1808.54 275.26 1783.75 275.26"/><polygon class="cls-1" points="1714.98 275.26 1555.71 142.84 1555.71 85.66 1783.75 275.26 1714.98 275.26"/><polygon class="cls-1" points="1646.21 275.26 1555.71 200.02 1555.71 142.84 1714.98 275.26 1646.21 275.26"/><polygon class="cls-1" points="1577.44 275.26 1555.71 257.19 1555.71 200.02 1646.21 275.26 1577.44 275.26"/><polygon class="cls-1" points="1555.71 257.19 1577.44 275.26 1555.71 275.26 1555.71 257.19"/></g><path class="cls-1" d="M2023.68,229.29H1923.46l-17.71,46h-90.43L1930.61,11.51H2018l115.3,263.75h-91.94Zm-24.49-64-25.62-66.32L1948,165.24Z"/><g class="cls-7"><polygon class="cls-1" points="1999.19 111.3 1984.3 98.92 1999.19 98.92 1999.19 111.3"/><polygon class="cls-1" points="1995.28 165.24 1948.31 126.18 1970.97 98.92 1984.3 98.92 1999.19 111.3 1999.19 165.24 1995.28 165.24"/><polygon class="cls-1" points="1947.95 126.61 1948.31 126.18 1995.28 165.24 1947.95 165.24 1947.95 126.61"/><polygon class="cls-1" points="2133.33 51.29 2085.47 11.51 2133.33 11.51 2133.33 51.29"/><polygon class="cls-1" points="2133.33 108.47 2016.7 11.51 2085.47 11.51 2133.33 51.29 2133.33 108.47"/><polygon class="cls-1" points="2133.33 165.65 1947.93 11.51 2016.7 11.51 2133.33 108.47 2133.33 165.65"/><polygon class="cls-1" points="2133.33 222.83 1908.05 35.52 1928.01 11.51 1947.93 11.51 2133.33 165.65 2133.33 222.83"/><polygon class="cls-1" points="2127.61 275.26 1879.93 69.33 1908.05 35.52 2133.33 222.83 2133.33 275.26 2127.61 275.26"/><polygon class="cls-1" points="2058.84 275.26 1851.83 103.14 1879.93 69.33 2127.61 275.26 2058.84 275.26"/><polygon class="cls-1" points="1990.07 275.26 1823.72 136.95 1851.83 103.14 2058.84 275.26 1990.07 275.26"/><polygon class="cls-1" points="1921.3 275.26 1815.32 187.14 1815.32 147.05 1823.72 136.95 1990.07 275.26 1921.3 275.26"/><polygon class="cls-1" points="1852.52 275.26 1815.32 244.32 1815.32 187.14 1921.3 275.26 1852.52 275.26"/><polygon class="cls-1" points="1815.32 244.32 1852.52 275.26 1815.32 275.26 1815.32 244.32"/></g><path class="cls-1" d="M2184.19,80.46H2107V11.51h243.41V80.46h-77.25v194.8h-88.92Z"/><g class="cls-8"><polygon class="cls-1" points="2350.36 60.2 2291.79 11.51 2350.36 11.51 2350.36 60.2"/><polygon class="cls-1" points="2350.36 117.38 2223.02 11.51 2291.79 11.51 2350.36 60.2 2350.36 117.38"/><polygon class="cls-1" points="2350.36 174.56 2154.25 11.51 2223.02 11.51 2350.36 117.38 2350.36 174.56"/><polygon class="cls-1" points="2350.36 185.49 2327.62 212.83 2106.95 29.36 2106.95 11.51 2154.25 11.51 2350.36 174.56 2350.36 185.49"/><polygon class="cls-1" points="2327.62 212.83 2299.51 246.64 2106.95 86.54 2106.95 29.36 2327.62 212.83"/><polygon class="cls-1" points="2299.51 246.64 2275.72 275.26 2265.15 275.26 2106.95 143.72 2106.95 86.54 2299.51 246.64"/><polygon class="cls-1" points="2196.38 275.26 2106.95 200.9 2106.95 143.72 2265.15 275.26 2196.38 275.26"/><polygon class="cls-1" points="2127.61 275.26 2106.95 258.08 2106.95 200.9 2196.38 275.26 2127.61 275.26"/><polygon class="cls-1" points="2106.95 258.08 2127.61 275.26 2106.95 275.26 2106.95 258.08"/></g><path class="cls-1" d="M2365.8,11.51h88.92V275.26H2365.8Z"/><g class="cls-9"><polygon class="cls-1" points="2454.72 32.62 2429.33 11.51 2454.72 11.51 2454.72 32.62"/><polygon class="cls-1" points="2454.72 89.8 2365.8 15.86 2365.8 11.51 2429.33 11.51 2454.72 32.62 2454.72 89.8"/><polygon class="cls-1" points="2454.72 146.97 2365.8 73.04 2365.8 15.86 2454.72 89.8 2454.72 146.97"/><polygon class="cls-1" points="2454.72 204.16 2365.8 130.22 2365.8 73.04 2454.72 146.97 2454.72 204.16"/><polygon class="cls-1" points="2454.72 261.33 2365.8 187.4 2365.8 130.22 2454.72 204.16 2454.72 261.33"/><polygon class="cls-1" points="2402.7 275.26 2365.8 244.58 2365.8 187.4 2454.72 261.33 2454.72 275.26 2402.7 275.26"/><polygon class="cls-1" points="2365.8 244.58 2402.7 275.26 2365.8 275.26 2365.8 244.58"/></g><path class="cls-1" d="M2544.39,263.58q-33.9-17.71-53.12-49.17t-19.22-71q0-39.55,19.22-71t53.12-49.17q33.92-17.71,76.49-17.71t76.49,17.71q33.91,17.72,53.13,49.17t19.21,71q0,39.57-19.21,71t-53.13,49.17q-33.91,17.7-76.49,17.71T2544.39,263.58Zm106.45-62.36a58,58,0,0,0,21.28-23q7.92-14.9,7.92-34.86t-7.92-34.85a58,58,0,0,0-21.28-23,59.38,59.38,0,0,0-59.91,0,58,58,0,0,0-21.29,23q-7.92,14.89-7.91,34.85t7.91,34.86a58,58,0,0,0,21.29,23,59.44,59.44,0,0,0,59.91,0Z"/><g class="cls-10"><polygon class="cls-1" points="2680.04 105.59 2646.18 77.44 2680.04 77.44 2680.04 105.59"/><polygon class="cls-1" points="2680.04 162.77 2584.8 83.59 2589.91 77.44 2646.18 77.44 2680.04 105.59 2680.04 162.77"/><polygon class="cls-1" points="2680.04 175.43 2658.15 201.75 2561.73 121.58 2561.73 111.34 2584.8 83.59 2680.04 162.77 2680.04 175.43"/><polygon class="cls-1" points="2658.15 201.75 2651.86 209.32 2598.48 209.32 2561.73 178.76 2561.73 121.58 2658.15 201.75"/><polygon class="cls-1" points="2561.73 178.76 2598.48 209.32 2561.73 209.32 2561.73 178.76"/><polygon class="cls-1" points="2769.71 8.61 2765.94 5.48 2769.71 5.48 2769.71 8.61"/><polygon class="cls-1" points="2769.71 65.79 2697.17 5.48 2765.94 5.48 2769.71 8.61 2769.71 65.79"/><polygon class="cls-1" points="2769.71 122.97 2628.4 5.48 2697.17 5.48 2769.71 65.79 2769.71 122.97"/><polygon class="cls-1" points="2769.71 180.15 2559.63 5.48 2628.4 5.48 2769.71 122.97 2769.71 180.15"/><polygon class="cls-1" points="2769.71 199.99 2751.36 222.07 2519.7 29.46 2539.65 5.48 2559.63 5.48 2769.71 180.15 2769.71 199.99"/><rect class="cls-1" x="2599.49" y="-7.96" width="43.97" height="301.26" transform="translate(835.79 2067.2) rotate(-50.26)"/><polygon class="cls-1" points="2723.25 255.88 2702.12 281.29 2685.03 281.29 2472.05 104.2 2472.05 86.78 2491.59 63.27 2723.25 255.88"/><polygon class="cls-1" points="2616.26 281.29 2472.05 161.38 2472.05 104.2 2685.03 281.29 2616.26 281.29"/><polygon class="cls-1" points="2547.49 281.29 2472.05 218.56 2472.05 161.38 2616.26 281.29 2547.49 281.29"/><polygon class="cls-1" points="2478.72 281.29 2472.05 275.74 2472.05 218.56 2547.49 281.29 2478.72 281.29"/><polygon class="cls-1" points="2472.05 275.74 2478.72 281.29 2472.05 281.29 2472.05 275.74"/></g><path class="cls-1" d="M3047,11.51V275.26h-73.1L2873.7,155.44V275.26H2787V11.51h73.1l100.22,119.82V11.51Z"/><g class="cls-11"><polygon class="cls-1" points="3047.03 67.64 2979.51 11.51 3047.03 11.51 3047.03 67.64"/><polygon class="cls-1" points="3047.03 124.82 2910.74 11.51 2979.51 11.51 3047.03 67.64 3047.03 124.82"/><polygon class="cls-1" points="3047.03 182 2841.96 11.51 2910.74 11.51 3047.03 124.82 3047.03 182"/><polygon class="cls-1" points="3047.03 239.18 2787.04 23.02 2787.04 11.51 2841.96 11.51 3047.03 182 3047.03 239.18"/><polygon class="cls-1" points="3021.64 275.26 2787.04 80.2 2787.04 23.02 3047.03 239.18 3047.03 275.26 3021.64 275.26"/><polygon class="cls-1" points="2952.87 275.26 2787.04 137.38 2787.04 80.2 3021.64 275.26 2952.87 275.26"/><polygon class="cls-1" points="2884.1 275.26 2787.04 194.56 2787.04 137.38 2952.87 275.26 2884.1 275.26"/><polygon class="cls-1" points="2815.33 275.26 2787.04 251.74 2787.04 194.56 2884.1 275.26 2815.33 275.26"/><polygon class="cls-1" points="2787.04 251.74 2815.33 275.26 2787.04 275.26 2787.04 251.74"/></g><path class="cls-1" d="M3349.35,206.31v68.95H3107.07V220.63L3227.65,80.46H3110.84V11.51h232.48V66.14L3222.75,206.31Z"/><path class="cls-1" d="M617.12,371.56V509H589.69V371.56H540.4V346.45h126v25.11Z"/><path class="cls-1" d="M724.07,509V346.45H751.5v70.44h80.68V346.45h27.43V509H832.18V442.47H751.5V509Z"/><path class="cls-1" d="M1037.47,346.45v25.8H950.75v43h77.89v24.42H950.75v43.47h89.51V509H923.32V346.45Z"/><path class="cls-1" d="M1308.65,346.45v25.8h-86.72v43h77.89v24.42h-77.89v43.47h89.51V509H1194.5V346.45Z"/><path class="cls-1" d="M1487,346.45h27.43V509h-29.76l-92.07-118.57V509h-27.43V346.45h27.43L1487,467.81Z"/><path class="cls-1" d="M1699.94,429.91h27.43v55.57q-23,25.33-65.79,25.34-36,0-60.33-23.71t-24.3-60q0-36.27,24.76-60.45t59.87-24.18q35.1,0,58.36,20.46l-14.65,20.93a57,57,0,0,0-19.18-11.28,72.77,72.77,0,0,0-22.44-3.14q-24.64,0-41.38,15.93t-16.74,41.85q0,25.92,16.27,41.61t39.41,15.7q23.13,0,38.71-10Z"/><path class="cls-1" d="M1791.31,509V346.45h27.43V482.92h74.17v26Z"/><path class="cls-1" d="M1955.45,346.45h27.43V509h-27.43Z"/><path class="cls-1" d="M2105.06,367.84q-12,0-19.65,4.88t-7.67,14.76q0,9.88,7.67,15.11t32.67,11.28q25,6,37.66,17t12.67,32.2q0,21.27-16,34.53t-42.08,13.25q-38.13,0-67.66-26.27l17.21-20.69q24.64,21.39,51.15,21.39,13.25,0,21-5.7a17.83,17.83,0,0,0,7.79-15.11q0-9.42-7.33-14.65t-25.22-9.53q-17.91-4.31-27.2-7.91a61.29,61.29,0,0,1-16.51-9.41q-14.42-10.94-14.42-33.48t16.39-34.76q16.39-12.21,40.57-12.21a97.26,97.26,0,0,1,30.93,5.12,81,81,0,0,1,26.5,14.41l-14.65,20.7q-7.2-6.51-19.53-10.7A75.18,75.18,0,0,0,2105.06,367.84Z"/><path class="cls-1" d="M2230.25,509V346.45h27.44v70.44h80.67V346.45h27.44V509h-27.44V442.47h-80.67V509Z"/></g></g></svg>