<svg xmlns="http://www.w3.org/2000/svg" xmlns:xlink="http://www.w3.org/1999/xlink" viewBox="0 0 3349.35 567.08"><defs><style>.cls-1{fill:#fcbf49;}.cls-2{fill:#f77f00;}.cls-3{fill:#d8572a;}.cls-4{fill:#c32f27;}.cls-5{fill:#d62828;}.cls-17,.cls-19,.cls-6{fill:#003049;}.cls-7{fill:url(#linear-gradient);}.cls-8{fill:url(#linear-gradient-2);}.cls-9{fill:url(#linear-gradient-3);}.cls-10{fill:url(#linear-gradient-4);}.cls-11{fill:url(#linear-gradient-5);}.cls-12{fill:url(#linear-gradient-6);}.cls-13{fill:url(#linear-gradient-7);}.cls-14{fill:url(#linear-gradient-8);}.cls-15{fill:url(#linear-gradient-9);}.cls-16{fill:url(#linear-gradient-10);}.cls-17,.cls-19,.cls-22{font-size:232.49px;font-family:Montserrat-Regular, Montserrat;}.cls-17,.cls-20{letter-spacing:0.12em;}.cls-18{letter-spacing:0.08em;}.cls-19{letter-spacing:0.08em;}.cls-21{letter-spacing:0.14em;}.cls-22{fill:#fff;letter-spacing:0.24em;}.cls-23{letter-spacing:0.16em;}</style><linearGradient id="linear-gradient" x1="2144.35" y1="-1597.76" x2="92.35" y2="870.24" gradientUnits="userSpaceOnUse"><stop offset="0" stop-color="#fcbf49"/><stop offset="1" stop-color="#f77f00"/></linearGradient><linearGradient id="linear-gradient-2" x1="2282.67" y1="-1482.75" x2="230.67" y2="985.25" xlink:href="#linear-gradient"/><linearGradient id="linear-gradient-3" x1="2431.26" y1="-1359.2" x2="379.26" y2="1108.8" xlink:href="#linear-gradient"/><linearGradient id="linear-gradient-4" x1="2580.52" y1="-1235.1" x2="528.52" y2="1232.9" xlink:href="#linear-gradient"/><linearGradient id="linear-gradient-5" x1="2727" y1="-1113.32" x2="675" y2="1354.68" xlink:href="#linear-gradient"/><linearGradient id="linear-gradient-6" x1="2933.85" y1="-941.33" x2="881.85" y2="1526.67" xlink:href="#linear-gradient"/><linearGradient id="linear-gradient-7" x1="3027.3" y1="-863.63" x2="975.3" y2="1604.37" xlink:href="#linear-gradient"/><linearGradient id="linear-gradient-8" x1="3157.52" y1="-755.36" x2="1105.52" y2="1712.64" xlink:href="#linear-gradient"/><linearGradient id="linear-gradient-9" x1="3282.05" y1="-651.82" x2="1230.05" y2="1816.18" xlink:href="#linear-gradient"/><linearGradient id="linear-gradient-10" x1="3457.15" y1="-506.23" x2="1405.15" y2="1961.77" xlink:href="#linear-gradient"/></defs><g id="Layer_2" data-name="Layer 2"><g id="Layer_8" data-name="Layer 8"><polygon class="cls-1" points="362.67 254.49 181.33 435.82 254.49 508.96 508.96 254.49 254.49 0 181.33 73.15 362.67 254.49"/><polygon class="cls-2" points="193.02 254.49 96.51 351 158.61 413.09 317.23 254.49 158.61 95.88 96.51 157.98 193.02 254.49"/><rect class="cls-3" x="21.61" y="202.31" width="104.34" height="104.34" transform="translate(-158.34 126.71) rotate(-45)"/><path class="cls-4" d="M0,254.49l73.78,73.78,73.79-73.78L73.78,180.7Z"/><rect class="cls-5" x="21.61" y="202.31" width="104.34" height="104.34" transform="translate(-158.34 126.71) rotate(-45)"/><rect class="cls-6" x="2491.66" y="313.99" width="857" height="228"/><path class="cls-7" d="M728.3,136.22h77.24V247.75Q782.17,264,751.28,272.62a223.85,223.85,0,0,1-60.66,8.67q-42.2,0-75.73-17.52t-52.56-49q-19-31.46-19-71.4t19-71.4q19-31.46,53.12-49T692.51,5.48q38.81,0,69.51,13a130.59,130.59,0,0,1,51.06,37.87l-56.9,50.11q-24.85-29-59.15-29-29.38,0-46.72,17.71T633,143.38q0,29.77,17.15,47.85t45.78,18.09a83.77,83.77,0,0,0,32.4-6.4Z"/><path class="cls-8" d="M1040.28,208.19v67.07H821V11.51h214.39V78.58h-127v30.89h111.53v64.06H908.4v34.66Z"/><path class="cls-9" d="M1311.94,11.51V275.26h-73.1L1138.62,155.44V275.26H1052V11.51h73.09l100.23,119.82V11.51Z"/><path class="cls-10" d="M1544,208.19v67.07h-219.3V11.51h214.4V78.58h-127v30.89h111.53v64.06H1412.16v34.66Z"/><path class="cls-11" d="M1668.75,208.94h-24.12v66.32h-88.92V11.51h127q36.54,0,63.68,12t41.82,34.67q14.7,22.6,14.69,52.75,0,28.26-12.81,49.36t-36.92,33.53l55.39,81.39h-95Zm35.42-120.76q-9-8.1-27.13-8.1h-32.41v61.8H1677q18.07,0,27.13-8.11t9-22.79Q1713.21,96.28,1704.17,88.18Z"/><path class="cls-12" d="M2023.68,229.29H1923.46l-17.71,46h-90.43L1930.61,11.51H2018l115.3,263.75h-91.94Zm-24.49-64-25.62-66.32L1948,165.24Z"/><path class="cls-13" d="M2184.19,80.46H2107V11.51h243.41V80.46h-77.25v194.8h-88.92Z"/><path class="cls-14" d="M2365.8,11.51h88.92V275.26H2365.8Z"/><path class="cls-15" d="M2544.39,263.58q-33.9-17.71-53.12-49.17t-19.22-71q0-39.55,19.22-71t53.12-49.17q33.92-17.71,76.49-17.71t76.49,17.71q33.91,17.72,53.13,49.17t19.21,71q0,39.57-19.21,71t-53.13,49.17q-33.91,17.7-76.49,17.71T2544.39,263.58Zm106.45-62.36a58,58,0,0,0,21.28-23q7.92-14.9,7.92-34.86t-7.92-34.85a58,58,0,0,0-21.28-23,59.38,59.38,0,0,0-59.91,0,58,58,0,0,0-21.29,23q-7.92,14.89-7.91,34.85t7.91,34.86a58,58,0,0,0,21.29,23,59.44,59.44,0,0,0,59.91,0Z"/><path class="cls-16" d="M3047,11.51V275.26h-73.1L2873.7,155.44V275.26H2787V11.51h73.1l100.22,119.82V11.51Z"/><path class="cls-5" d="M3349.35,206.31v68.95H3107.07V220.63L3227.65,80.46H3110.84V11.51h232.48V66.14L3222.75,206.31Z"/><text class="cls-17" transform="translate(533.19 508.96)">T<tspan class="cls-18" x="168.32" y="0">H</tspan><tspan x="367.57" y="0">E</tspan></text><text class="cls-19" transform="translate(1171.95 508.96)">E<tspan class="cls-20" x="170.65" y="0">NG</tspan><tspan class="cls-21" x="596.81" y="0">L</tspan><tspan class="cls-20" x="760.95" y="0">ISH</tspan></text><text class="cls-22" transform="translate(2522.23 508.96)">R<tspan class="cls-21" x="225.05" y="0">A</tspan><tspan class="cls-23" x="430.11" y="0">C</tspan><tspan class="cls-20" x="638.43" y="0">E</tspan></text></g></g></svg>