<svg xmlns="http://www.w3.org/2000/svg" xmlns:xlink="http://www.w3.org/1999/xlink" viewBox="0 0 3536.71 695.45"><defs><style>.cls-1{fill:none;}.cls-2{fill:#fff;}.cls-3{fill:#fcbf49;}.cls-4{fill:#f77f00;}.cls-5{fill:#d8572a;}.cls-6{fill:#c32f27;}.cls-7{fill:#d62828;}.cls-8{fill:#003049;}.cls-9{clip-path:url(#clip-path);}.cls-10{fill:#f99519;}.cls-11{fill:#f99418;}.cls-12{fill:#f99317;}.cls-13{fill:#f99316;}.cls-14{fill:#f89215;}.cls-15{fill:#f89114;}.cls-16{fill:#f89013;}.cls-17{fill:#f88f12;}.cls-18{fill:#f88e11;}.cls-19{fill:#f88d10;}.cls-20{clip-path:url(#clip-path-2);}.cls-21{fill:#f9981c;}.cls-22{fill:#f9971b;}.cls-23{fill:#f9961a;}.cls-24{clip-path:url(#clip-path-3);}.cls-25{fill:#f99b20;}.cls-26{fill:#f99b1f;}.cls-27{fill:#f99a1e;}.cls-28{fill:#f9991d;}.cls-29{clip-path:url(#clip-path-4);}.cls-30{fill:#fa9f25;}.cls-31{fill:#f99e23;}.cls-32{fill:#f99d22;}.cls-33{fill:#f99c21;}.cls-34{clip-path:url(#clip-path-5);}.cls-35{fill:#faa026;}.cls-36{fill:#faa228;}.cls-37{fill:#faa127;}.cls-38{clip-path:url(#clip-path-6);}.cls-39{fill:#faa32a;}.cls-40{fill:#faa329;}.cls-41{fill:#faa62d;}.cls-42{fill:#faa52c;}.cls-43{fill:#faa42b;}.cls-44{clip-path:url(#clip-path-7);}.cls-45{fill:#faa930;}.cls-46{fill:#faa82f;}.cls-47{fill:#faa72e;}.cls-48{clip-path:url(#clip-path-8);}.cls-49{fill:#faab32;}.cls-50{fill:#faaa31;}.cls-51{clip-path:url(#clip-path-9);}.cls-52{fill:#fbac34;}.cls-53{fill:#faab33;}.cls-54{fill:#fbaf37;}.cls-55{fill:#fbae36;}.cls-56{fill:#fbad35;}.cls-57{clip-path:url(#clip-path-10);}.cls-58{fill:#fbb23a;}.cls-59{fill:#fbb139;}.cls-60{fill:#fbb038;}</style><clipPath id="clip-path"><path class="cls-1" d="M814.78,202.91H892V314.44q-23.37,16.2-54.26,24.87A224.27,224.27,0,0,1,777.1,348q-42.21,0-75.74-17.52t-52.56-49q-19-31.46-19-71.4t19-71.4q19-31.45,53.13-49T779,72.16q38.81,0,69.52,13a130.58,130.58,0,0,1,51,37.87l-56.89,50.11q-24.87-29-59.16-29-29.38,0-46.72,17.71t-17.33,48.23q0,29.77,17.14,47.85T782.37,276a83.65,83.65,0,0,0,32.41-6.41Z"/></clipPath><clipPath id="clip-path-2"><path class="cls-1" d="M1126.76,274.88v67.06H907.46V78.19h214.4v67.07h-127v30.9h111.53v64.05H994.88v34.67Z"/></clipPath><clipPath id="clip-path-3"><path class="cls-1" d="M1398.41,78.19V341.94h-73.09L1225.09,222.13V341.94h-86.66V78.19h73.1L1311.75,198V78.19Z"/></clipPath><clipPath id="clip-path-4"><path class="cls-1" d="M1630.51,274.88v67.06H1411.22V78.19h214.39v67.07h-127v30.9h111.53v64.05H1498.63v34.67Z"/></clipPath><clipPath id="clip-path-5"><path class="cls-1" d="M1755.22,275.63h-24.11v66.31h-88.92V78.19h127q36.55,0,63.68,12.06t41.83,34.67q14.68,22.61,14.69,52.75,0,28.25-12.81,49.35t-36.93,33.54L1895,341.94h-95Zm35.42-120.76q-9-8.1-27.13-8.1h-32.4v61.79h32.4q18.09,0,27.13-8.1t9-22.79Q1799.68,163,1790.64,154.87Z"/></clipPath><clipPath id="clip-path-6"><path class="cls-1" d="M2110.16,296H2009.93l-17.71,46h-90.43l115.3-263.75h87.41l115.3,263.75h-91.94Zm-24.5-64.06L2060,165.61l-25.62,66.31Z"/></clipPath><clipPath id="clip-path-7"><path class="cls-1" d="M2270.67,147.15h-77.25v-69h243.41v69h-77.24V341.94h-88.92Z"/></clipPath><clipPath id="clip-path-8"><path class="cls-1" d="M2452.27,78.19h88.93V341.94h-88.93Z"/></clipPath><clipPath id="clip-path-9"><path class="cls-1" d="M2630.87,330.26q-33.91-17.7-53.13-49.17t-19.21-71q0-39.57,19.21-71t53.13-49.17q33.91-17.7,76.49-17.71t76.48,17.71Q2817.75,107.59,2837,139t19.22,71q0,39.56-19.22,71t-53.13,49.17Q2749.94,348,2707.36,348T2630.87,330.26Zm106.44-62.35a58.06,58.06,0,0,0,21.29-23q7.92-14.88,7.91-34.85t-7.91-34.85a58.19,58.19,0,0,0-21.29-23,59.44,59.44,0,0,0-59.91,0,58.12,58.12,0,0,0-21.29,23q-7.91,14.88-7.91,34.85t7.91,34.85a58,58,0,0,0,21.29,23,59.44,59.44,0,0,0,59.91,0Z"/></clipPath><clipPath id="clip-path-10"><path class="cls-1" d="M3133.5,78.19V341.94h-73.1L2960.18,222.13V341.94h-86.66V78.19h73.09L3046.84,198V78.19Z"/></clipPath></defs><g id="Layer_2" data-name="Layer 2"><g id="Layer_8" data-name="Layer 8"><rect class="cls-2" width="3536.71" height="695.45" rx="49.77"/><polygon class="cls-3" points="449.14 321.17 267.81 502.51 340.96 575.65 595.43 321.17 340.96 66.69 267.81 139.84 449.14 321.17"/><polygon class="cls-4" points="279.49 321.17 182.98 417.68 245.08 479.78 403.7 321.17 245.08 162.56 182.98 224.66 279.49 321.17"/><rect class="cls-5" x="108.09" y="269" width="104.34" height="104.34" transform="translate(-180.16 207.39) rotate(-45)"/><path class="cls-6" d="M86.48,321.17,160.26,395,234,321.17l-73.78-73.78Z"/><rect class="cls-7" x="108.09" y="269" width="104.34" height="104.34" transform="translate(-180.17 207.39) rotate(-45)"/><rect class="cls-8" x="2578.14" y="380.68" width="857" height="228"/><g class="cls-9"><polygon class="cls-10" points="899.55 106.68 858.04 72.16 899.55 72.16 899.55 106.68"/><polygon class="cls-11" points="899.55 163.86 789.26 72.16 858.04 72.16 899.55 106.68 899.55 163.86"/><polygon class="cls-12" points="899.55 221.04 720.49 72.16 789.26 72.16 899.55 163.86 899.55 221.04"/><polygon class="cls-13" points="899.55 278.22 678.34 94.3 696.74 72.16 720.49 72.16 899.55 221.04 899.55 278.22"/><polygon class="cls-14" points="899.55 308.5 886.33 324.41 650.23 128.1 678.34 94.3 899.55 278.22 899.55 308.5"/><polygon class="cls-15" points="886.33 324.41 866.74 347.97 845.9 347.97 629.77 168.28 629.77 152.71 650.23 128.1 886.33 324.41"/><polygon class="cls-16" points="777.13 347.97 629.77 225.46 629.77 168.28 845.9 347.97 777.13 347.97"/><polygon class="cls-17" points="708.36 347.97 629.77 282.63 629.77 225.46 777.13 347.97 708.36 347.97"/><polygon class="cls-18" points="639.59 347.97 629.77 339.81 629.77 282.63 708.36 347.97 639.59 347.97"/><polygon class="cls-19" points="629.77 339.81 639.59 347.97 629.77 347.97 629.77 339.81"/></g><g class="cls-20"><polygon class="cls-21" points="1126.76 124.05 1071.6 78.19 1126.76 78.19 1126.76 124.05"/><polygon class="cls-22" points="1126.76 181.23 1002.83 78.19 1071.6 78.19 1126.76 124.05 1126.76 181.23"/><polygon class="cls-23" points="1126.76 238.41 934.06 78.19 1002.83 78.19 1126.76 181.23 1126.76 238.41"/><polygon class="cls-10" points="1126.76 295.59 907.46 113.26 907.46 78.19 934.06 78.19 1126.76 238.41 1126.76 295.59"/><polygon class="cls-11" points="1113.74 341.94 907.46 170.44 907.46 113.26 1126.76 295.59 1126.76 341.94 1113.74 341.94"/><polygon class="cls-12" points="1044.97 341.94 907.46 227.62 907.46 170.44 1113.74 341.94 1044.97 341.94"/><polygon class="cls-13" points="976.19 341.94 907.46 284.8 907.46 227.62 1044.97 341.94 976.19 341.94"/><polygon class="cls-14" points="907.46 284.8 976.19 341.94 907.46 341.94 907.46 284.8"/></g><g class="cls-24"><polygon class="cls-25" points="1398.41 121.2 1346.69 78.19 1398.41 78.19 1398.41 121.2"/><polygon class="cls-26" points="1398.41 178.38 1277.92 78.19 1346.69 78.19 1398.41 121.2 1398.41 178.38"/><polygon class="cls-27" points="1398.41 235.56 1209.15 78.19 1277.92 78.19 1398.41 178.38 1398.41 235.56"/><polygon class="cls-28" points="1398.41 292.74 1140.38 78.19 1209.15 78.19 1398.41 235.56 1398.41 292.74"/><polygon class="cls-21" points="1388.82 341.94 1138.43 133.76 1138.43 78.19 1140.38 78.19 1398.41 292.74 1398.41 341.94 1388.82 341.94"/><polygon class="cls-22" points="1320.05 341.94 1138.43 190.94 1138.43 133.76 1388.82 341.94 1320.05 341.94"/><polygon class="cls-23" points="1251.28 341.94 1138.43 248.12 1138.43 190.94 1320.05 341.94 1251.28 341.94"/><polygon class="cls-10" points="1182.51 341.94 1138.43 305.3 1138.43 248.12 1251.28 341.94 1182.51 341.94"/><polygon class="cls-11" points="1138.43 305.3 1182.51 341.94 1138.43 341.94 1138.43 305.3"/></g><g class="cls-29"><polygon class="cls-30" points="1630.51 85.45 1621.78 78.19 1630.51 78.19 1630.51 85.45"/><polygon class="cls-31" points="1630.51 142.63 1553.01 78.19 1621.78 78.19 1630.51 85.45 1630.51 142.63"/><polygon class="cls-32" points="1630.51 199.81 1484.23 78.19 1553.01 78.19 1630.51 142.63 1630.51 199.81"/><polygon class="cls-33" points="1630.51 256.99 1415.46 78.19 1484.23 78.19 1630.51 199.81 1630.51 256.99"/><polygon class="cls-25" points="1630.51 314.17 1411.22 131.85 1411.22 78.19 1415.46 78.19 1630.51 256.99 1630.51 314.17"/><polygon class="cls-26" points="1595.14 341.94 1411.22 189.03 1411.22 131.85 1630.51 314.17 1630.51 341.94 1595.14 341.94"/><polygon class="cls-27" points="1526.37 341.94 1411.22 246.21 1411.22 189.03 1595.14 341.94 1526.37 341.94"/><polygon class="cls-28" points="1457.6 341.94 1411.22 303.38 1411.22 246.21 1526.37 341.94 1457.6 341.94"/><polygon class="cls-21" points="1411.22 303.38 1457.6 341.94 1411.22 341.94 1411.22 303.38"/></g><g class="cls-34"><polygon class="cls-35" points="1799.68 168.93 1773.03 146.77 1799.68 146.77 1799.68 168.93"/><polygon class="cls-30" points="1799.68 194.56 1788.05 208.56 1778.58 208.56 1731.11 169.1 1731.11 146.77 1773.03 146.77 1799.68 168.93 1799.68 194.56"/><polygon class="cls-31" points="1731.11 169.1 1778.58 208.56 1731.11 208.56 1731.11 169.1"/><polygon class="cls-36" points="1895.01 133.83 1828.09 78.19 1895.01 78.19 1895.01 133.83"/><polygon class="cls-37" points="1895.01 191.01 1759.32 78.19 1828.09 78.19 1895.01 133.83 1895.01 191.01"/><polygon class="cls-35" points="1895.01 248.19 1690.55 78.19 1759.32 78.19 1895.01 191.01 1895.01 248.19"/><polygon class="cls-30" points="1895.01 305.37 1642.19 95.16 1642.19 78.19 1690.55 78.19 1895.01 248.19 1895.01 305.37"/><polygon class="cls-31" points="1870.23 341.94 1642.19 152.34 1642.19 95.16 1895.01 305.37 1895.01 341.94 1870.23 341.94"/><polygon class="cls-32" points="1801.45 341.94 1642.19 209.52 1642.19 152.34 1870.23 341.94 1801.45 341.94"/><polygon class="cls-33" points="1732.68 341.94 1642.19 266.7 1642.19 209.52 1801.45 341.94 1732.68 341.94"/><polygon class="cls-25" points="1663.91 341.94 1642.19 323.88 1642.19 266.7 1732.68 341.94 1663.91 341.94"/><polygon class="cls-26" points="1642.19 323.88 1663.91 341.94 1642.19 341.94 1642.19 323.88"/></g><g class="cls-38"><polygon class="cls-39" points="2085.66 177.99 2070.77 165.61 2085.66 165.61 2085.66 177.99"/><polygon class="cls-40" points="2081.76 231.92 2034.78 192.86 2057.44 165.61 2070.77 165.61 2085.66 177.99 2085.66 231.92 2081.76 231.92"/><polygon class="cls-36" points="2034.42 193.29 2034.78 192.86 2081.76 231.92 2034.42 231.92 2034.42 193.29"/><polygon class="cls-41" points="2219.8 117.98 2171.95 78.19 2219.8 78.19 2219.8 117.98"/><polygon class="cls-42" points="2219.8 175.16 2103.18 78.19 2171.95 78.19 2219.8 117.98 2219.8 175.16"/><polygon class="cls-43" points="2219.8 232.34 2034.41 78.19 2103.18 78.19 2219.8 175.16 2219.8 232.34"/><polygon class="cls-39" points="2219.8 289.52 1994.52 102.21 2014.49 78.19 2034.41 78.19 2219.8 232.34 2219.8 289.52"/><polygon class="cls-40" points="2214.09 341.94 1966.41 136.02 1994.52 102.21 2219.8 289.52 2219.8 341.94 2214.09 341.94"/><polygon class="cls-36" points="2145.31 341.94 1938.3 169.83 1966.41 136.02 2214.09 341.94 2145.31 341.94"/><polygon class="cls-37" points="2076.54 341.94 1910.19 203.63 1938.3 169.83 2145.31 341.94 2076.54 341.94"/><polygon class="cls-35" points="2007.77 341.94 1901.79 253.83 1901.79 213.74 1910.19 203.63 2076.54 341.94 2007.77 341.94"/><polygon class="cls-30" points="1939 341.94 1901.79 311.01 1901.79 253.83 2007.77 341.94 1939 341.94"/><polygon class="cls-31" points="1901.79 311.01 1939 341.94 1901.79 341.94 1901.79 311.01"/></g><g class="cls-44"><polygon class="cls-45" points="2436.83 126.89 2378.27 78.19 2436.83 78.19 2436.83 126.89"/><polygon class="cls-46" points="2436.83 184.07 2309.49 78.19 2378.27 78.19 2436.83 126.89 2436.83 184.07"/><polygon class="cls-47" points="2436.83 241.25 2240.72 78.19 2309.49 78.19 2436.83 184.07 2436.83 241.25"/><polygon class="cls-41" points="2436.83 252.17 2414.09 279.52 2193.43 96.05 2193.43 78.19 2240.72 78.19 2436.83 241.25 2436.83 252.17"/><polygon class="cls-42" points="2414.09 279.52 2385.98 313.33 2193.43 153.23 2193.43 96.05 2414.09 279.52"/><polygon class="cls-43" points="2385.98 313.33 2362.19 341.94 2351.63 341.94 2193.43 210.41 2193.43 153.23 2385.98 313.33"/><polygon class="cls-39" points="2282.86 341.94 2193.43 267.59 2193.43 210.41 2351.63 341.94 2282.86 341.94"/><polygon class="cls-40" points="2214.09 341.94 2193.43 324.77 2193.43 267.59 2282.86 341.94 2214.09 341.94"/><polygon class="cls-36" points="2193.43 324.77 2214.09 341.94 2193.43 341.94 2193.43 324.77"/></g><g class="cls-48"><polygon class="cls-49" points="2541.2 99.3 2515.81 78.19 2541.2 78.19 2541.2 99.3"/><polygon class="cls-50" points="2541.2 156.48 2452.28 82.55 2452.28 78.19 2515.81 78.19 2541.2 99.3 2541.2 156.48"/><polygon class="cls-45" points="2541.2 213.66 2452.28 139.73 2452.28 82.55 2541.2 156.48 2541.2 213.66"/><polygon class="cls-46" points="2541.2 270.84 2452.28 196.91 2452.28 139.73 2541.2 213.66 2541.2 270.84"/><polygon class="cls-47" points="2541.2 328.02 2452.28 254.09 2452.28 196.91 2541.2 270.84 2541.2 328.02"/><polygon class="cls-41" points="2489.17 341.94 2452.28 311.27 2452.28 254.09 2541.2 328.02 2541.2 341.94 2489.17 341.94"/><polygon class="cls-42" points="2452.28 311.27 2489.17 341.94 2452.28 341.94 2452.28 311.27"/></g><g class="cls-51"><polygon class="cls-52" points="2766.51 172.28 2732.66 144.13 2766.51 144.13 2766.51 172.28"/><polygon class="cls-53" points="2766.51 229.46 2671.28 150.28 2676.39 144.13 2732.66 144.13 2766.51 172.28 2766.51 229.46"/><polygon class="cls-49" points="2766.51 242.12 2744.62 268.44 2648.2 188.27 2648.2 178.03 2671.28 150.28 2766.51 229.46 2766.51 242.12"/><polygon class="cls-50" points="2744.62 268.44 2738.33 276.01 2684.95 276.01 2648.2 245.45 2648.2 188.27 2744.62 268.44"/><polygon class="cls-45" points="2648.2 245.45 2684.95 276.01 2648.2 276.01 2648.2 245.45"/><polygon class="cls-54" points="2856.19 75.3 2852.42 72.16 2856.19 72.16 2856.19 75.3"/><polygon class="cls-55" points="2856.19 132.48 2783.64 72.16 2852.42 72.16 2856.19 75.3 2856.19 132.48"/><polygon class="cls-56" points="2856.19 189.66 2714.87 72.16 2783.64 72.16 2856.19 132.48 2856.19 189.66"/><polygon class="cls-52" points="2856.19 246.84 2646.1 72.16 2714.87 72.16 2856.19 189.66 2856.19 246.84"/><polygon class="cls-53" points="2856.19 266.68 2837.83 288.76 2606.18 96.15 2626.12 72.16 2646.1 72.16 2856.19 246.84 2856.19 266.68"/><rect class="cls-49" x="2685.97" y="58.73" width="43.97" height="301.26" transform="translate(815.7 2157.75) rotate(-50.26)"/><polygon class="cls-50" points="2809.72 322.56 2788.6 347.97 2771.51 347.97 2558.53 170.89 2558.53 153.47 2578.07 129.96 2809.72 322.56"/><polygon class="cls-45" points="2702.74 347.97 2558.53 228.07 2558.53 170.89 2771.51 347.97 2702.74 347.97"/><polygon class="cls-46" points="2633.97 347.97 2558.53 285.25 2558.53 228.07 2702.74 347.97 2633.97 347.97"/><polygon class="cls-47" points="2565.19 347.97 2558.53 342.43 2558.53 285.25 2633.97 347.97 2565.19 347.97"/><polygon class="cls-41" points="2558.53 342.43 2565.19 347.97 2558.53 347.97 2558.53 342.43"/></g><g class="cls-57"><polygon class="cls-58" points="3133.5 134.33 3065.98 78.19 3133.5 78.19 3133.5 134.33"/><polygon class="cls-59" points="3133.5 191.51 2997.21 78.19 3065.98 78.19 3133.5 134.33 3133.5 191.51"/><polygon class="cls-60" points="3133.5 248.69 2928.44 78.19 2997.21 78.19 3133.5 191.51 3133.5 248.69"/><polygon class="cls-54" points="3133.5 305.87 2873.52 89.71 2873.52 78.19 2928.44 78.19 3133.5 248.69 3133.5 305.87"/><polygon class="cls-55" points="3108.12 341.94 2873.52 146.89 2873.52 89.71 3133.5 305.87 3133.5 341.94 3108.12 341.94"/><polygon class="cls-56" points="3039.34 341.94 2873.52 204.07 2873.52 146.89 3108.12 341.94 3039.34 341.94"/><polygon class="cls-52" points="2970.57 341.94 2873.52 261.25 2873.52 204.07 3039.34 341.94 2970.57 341.94"/><polygon class="cls-53" points="2901.8 341.94 2873.52 318.43 2873.52 261.25 2970.57 341.94 2901.8 341.94"/><polygon class="cls-49" points="2873.52 318.43 2901.8 341.94 2873.52 341.94 2873.52 318.43"/></g><path class="cls-7" d="M3435.82,273v69H3193.55V287.31l120.57-140.16h-116.8V78.2h232.47v54.63L3309.22,273Z"/><path class="cls-8" d="M703.6,438.24V575.65H676.16V438.24H626.87V413.13h126v25.11Z"/><path class="cls-8" d="M810.54,575.65V413.13H838v70.45h80.67V413.13h27.44V575.65H918.65v-66.5H838v66.5Z"/><path class="cls-8" d="M1123.94,413.13v25.81h-86.72v43h77.89v24.41h-77.89v43.48h89.51v25.81H1009.79V413.13Z"/><path class="cls-8" d="M1395.13,413.13v25.81h-86.72v43h77.88v24.41h-77.88v43.48h89.51v25.81H1281V413.13Z"/><path class="cls-8" d="M1573.45,413.13h27.44V575.65h-29.76l-92.07-118.58V575.65h-27.44V413.13h27.44l94.39,121.36Z"/><path class="cls-8" d="M1786.42,496.6h27.43v55.56q-23,25.35-65.8,25.35-36,0-60.33-23.72t-24.29-60q0-36.27,24.76-60.45t59.86-24.18q35.12,0,58.36,20.46l-14.65,20.92a57,57,0,0,0-19.18-11.27,72.36,72.36,0,0,0-22.43-3.14q-24.64,0-41.39,15.92T1692,493.92q0,25.94,16.28,41.62t39.41,15.69q23.13,0,38.71-10Z"/><path class="cls-8" d="M1877.78,575.65V413.13h27.44V549.61h74.16v26Z"/><path class="cls-8" d="M2041.92,413.13h27.44V575.65h-27.44Z"/><path class="cls-8" d="M2191.53,434.52q-12,0-19.64,4.88t-7.67,14.77q0,9.88,7.67,15.11t32.66,11.28q25,6,37.67,17t12.67,32.2q0,21.27-16,34.52t-42.09,13.26q-38.13,0-67.65-26.28l17.2-20.69q24.64,21.39,51.15,21.39,13.26,0,21-5.69a17.85,17.85,0,0,0,7.79-15.12q0-9.4-7.32-14.64t-25.23-9.54q-17.91-4.29-27.2-7.9a61.35,61.35,0,0,1-16.51-9.42q-14.42-10.92-14.41-33.48T2152,421.39q16.39-12.21,40.57-12.21a97.51,97.51,0,0,1,30.92,5.11A81.06,81.06,0,0,1,2250,428.71l-14.65,20.69q-7.21-6.51-19.53-10.69A75.3,75.3,0,0,0,2191.53,434.52Z"/><path class="cls-8" d="M2316.73,575.65V413.13h27.43v70.45h80.68V413.13h27.43V575.65h-27.43v-66.5h-80.68v66.5Z"/><path class="cls-2" d="M2761,465.91q0,40.23-35.11,50.68l42.55,59.06h-34.87L2694.73,521h-36v54.64h-27.43V413.13h60.45q37.18,0,53.24,12.56T2761,465.91Zm-36.5,23q8.37-7.21,8.37-23.14t-8.6-21.85q-8.61-5.94-30.69-5.93h-34.88v58.12h34.18Q2716.12,496.13,2724.49,488.93Z"/><path class="cls-2" d="M2879.33,538.68l-16.28,37h-29.29l71.61-162.52h29.29l71.61,162.52H2977l-16.28-37Zm70.21-25.34-29.52-67-29.53,67Z"/><path class="cls-2" d="M3135.54,550.77q14.17,0,24.41-4.77t21.39-15.23L3199,548.91q-25.82,28.59-62.66,28.6t-61.15-23.72q-24.28-23.71-24.29-60t24.76-60.45q24.76-24.18,62.54-24.18t63.12,27.9l-17.43,19.06q-11.64-11.16-22-15.57t-24.3-4.42q-24.65,0-41.39,15.92t-16.73,40.69q0,24.76,16.62,41.39T3135.54,550.77Z"/><path class="cls-2" d="M3383.84,413.13v25.81h-86.72v43H3375v24.41h-77.88v43.48h89.51v25.81h-117V413.13Z"/></g></g></svg>