<svg xmlns="http://www.w3.org/2000/svg" xmlns:xlink="http://www.w3.org/1999/xlink" viewBox="0 0 3353.87 612.09"><defs><style>.cls-1{fill:#fcbf49;}.cls-2{fill:#f77f00;}.cls-3{fill:#d8572a;}.cls-4{fill:#c32f27;}.cls-17,.cls-5{fill:#d62828;}.cls-18,.cls-20,.cls-6{fill:#003049;}.cls-7{fill:url(#linear-gradient);}.cls-8{fill:url(#linear-gradient-2);}.cls-9{fill:url(#linear-gradient-3);}.cls-10{fill:url(#linear-gradient-4);}.cls-11{fill:url(#linear-gradient-5);}.cls-12{fill:url(#linear-gradient-6);}.cls-13{fill:url(#linear-gradient-7);}.cls-14{fill:url(#linear-gradient-8);}.cls-15{fill:url(#linear-gradient-9);}.cls-16{fill:url(#linear-gradient-10);}.cls-17{font-size:376.79px;font-family:Montserrat-Black, Montserrat;font-weight:800;}.cls-18,.cls-20,.cls-23{font-size:232.49px;font-family:Montserrat-Regular, Montserrat;}.cls-18,.cls-21{letter-spacing:0.12em;}.cls-19{letter-spacing:0.08em;}.cls-20{letter-spacing:0.08em;}.cls-22{letter-spacing:0.14em;}.cls-23{fill:#fff;letter-spacing:0.24em;}.cls-24{letter-spacing:0.16em;}</style><linearGradient id="linear-gradient" x1="2144.35" y1="-1552.75" x2="92.35" y2="915.25" gradientUnits="userSpaceOnUse"><stop offset="0" stop-color="#fcbf49"/><stop offset="1" stop-color="#f77f00"/></linearGradient><linearGradient id="linear-gradient-2" x1="2282.67" y1="-1437.74" x2="230.67" y2="1030.26" xlink:href="#linear-gradient"/><linearGradient id="linear-gradient-3" x1="2431.26" y1="-1314.2" x2="379.26" y2="1153.8" xlink:href="#linear-gradient"/><linearGradient id="linear-gradient-4" x1="2580.52" y1="-1190.1" x2="528.52" y2="1277.9" xlink:href="#linear-gradient"/><linearGradient id="linear-gradient-5" x1="2727" y1="-1068.31" x2="675" y2="1399.69" xlink:href="#linear-gradient"/><linearGradient id="linear-gradient-6" x1="2933.85" y1="-896.33" x2="881.85" y2="1571.67" xlink:href="#linear-gradient"/><linearGradient id="linear-gradient-7" x1="3027.3" y1="-818.62" x2="975.3" y2="1649.38" xlink:href="#linear-gradient"/><linearGradient id="linear-gradient-8" x1="3157.52" y1="-710.36" x2="1105.52" y2="1757.64" xlink:href="#linear-gradient"/><linearGradient id="linear-gradient-9" x1="3282.05" y1="-606.82" x2="1230.05" y2="1861.18" xlink:href="#linear-gradient"/><linearGradient id="linear-gradient-10" x1="3457.15" y1="-461.23" x2="1405.15" y2="2006.77" xlink:href="#linear-gradient"/></defs><g id="Layer_2" data-name="Layer 2"><g id="Layer_8" data-name="Layer 8"><polygon class="cls-1" points="362.67 299.49 181.33 480.82 254.49 553.97 508.96 299.49 254.49 45.01 181.33 118.16 362.67 299.49"/><polygon class="cls-2" points="193.02 299.49 96.51 396 158.61 458.1 317.23 299.49 158.61 140.88 96.51 202.98 193.02 299.49"/><rect class="cls-3" x="21.61" y="247.32" width="104.34" height="104.34" transform="translate(-190.16 139.89) rotate(-45)"/><path class="cls-4" d="M0,299.49l73.78,73.78,73.79-73.78L73.78,225.71Z"/><rect class="cls-5" x="21.61" y="247.32" width="104.34" height="104.34" transform="translate(-190.16 139.89) rotate(-45)"/><rect class="cls-6" x="2491.66" y="359" width="857" height="228"/><path class="cls-7" d="M728.3,181.23h77.24V292.76q-23.37,16.2-54.26,24.87a224.22,224.22,0,0,1-60.66,8.66q-42.2,0-75.73-17.52t-52.56-49q-19-31.46-19-71.4t19-71.4q19-31.45,53.12-49t77.06-17.52q38.81,0,69.51,13a130.69,130.69,0,0,1,51.06,37.87l-56.9,50.11q-24.85-29-59.15-29-29.38,0-46.72,17.71T633,188.39q0,29.76,17.15,47.85t45.78,18.09a83.78,83.78,0,0,0,32.4-6.41Z"/><path class="cls-8" d="M1040.28,253.19v67.07H821V56.51h214.39v67.07h-127v30.9h111.53v64.05H908.4v34.66Z"/><path class="cls-9" d="M1311.94,56.51V320.26h-73.1L1138.62,200.44V320.26H1052V56.51h73.09l100.23,119.82V56.51Z"/><path class="cls-10" d="M1544,253.19v67.07h-219.3V56.51h214.4v67.07h-127v30.9h111.53v64.05H1412.16v34.66Z"/><path class="cls-11" d="M1668.75,254h-24.12v66.31h-88.92V56.51h127q36.54,0,63.68,12.06t41.82,34.66q14.7,22.62,14.69,52.75,0,28.26-12.81,49.36t-36.92,33.54l55.39,81.38h-95Zm35.42-120.76q-9-8.1-27.13-8.1h-32.41v61.79H1677q18.07,0,27.13-8.1t9-22.8Q1713.21,141.3,1704.17,133.19Z"/><path class="cls-12" d="M2023.68,274.3H1923.46l-17.71,46h-90.43L1930.61,56.51H2018l115.3,263.75h-91.94Zm-24.49-64.06-25.62-66.31L1948,210.24Z"/><path class="cls-13" d="M2184.19,125.46H2107V56.51h243.41v68.95h-77.25v194.8h-88.92Z"/><path class="cls-14" d="M2365.8,56.51h88.92V320.26H2365.8Z"/><path class="cls-15" d="M2544.39,308.58q-33.9-17.7-53.12-49.17t-19.22-71q0-39.57,19.22-71t53.12-49.17q33.92-17.7,76.49-17.71t76.49,17.71q33.91,17.72,53.13,49.17t19.21,71q0,39.56-19.21,71t-53.13,49.17q-33.91,17.71-76.49,17.71T2544.39,308.58Zm106.45-62.36a57.87,57.87,0,0,0,21.28-23q7.92-14.88,7.92-34.85t-7.92-34.86a58.07,58.07,0,0,0-21.28-23,59.44,59.44,0,0,0-59.91,0,58,58,0,0,0-21.29,23q-7.92,14.9-7.91,34.86t7.91,34.85a57.82,57.82,0,0,0,21.29,23,59.38,59.38,0,0,0,59.91,0Z"/><path class="cls-16" d="M3047,56.51V320.26h-73.1L2873.7,200.44V320.26H2787V56.51h73.1l100.22,119.82V56.51Z"/><text class="cls-17" transform="translate(3095.02 320.27)">Z</text><text class="cls-18" transform="translate(533.19 553.97)">T<tspan class="cls-19" x="168.32" y="0">H</tspan><tspan x="367.57" y="0">E</tspan></text><text class="cls-20" transform="translate(1171.95 553.97)">E<tspan class="cls-21" x="170.65" y="0">NG</tspan><tspan class="cls-22" x="596.81" y="0">L</tspan><tspan class="cls-21" x="760.95" y="0">ISH</tspan></text><text class="cls-23" transform="translate(2522.23 553.96)">R<tspan class="cls-22" x="225.05" y="0">A</tspan><tspan class="cls-24" x="430.11" y="0">C</tspan><tspan class="cls-21" x="638.43" y="0">E</tspan></text></g></g></svg>