<svg id="Layer_1" data-name="Layer 1" xmlns="http://www.w3.org/2000/svg" viewBox="0 0 600 600"><defs><style>.cls-1{fill:#212529;}.cls-2{fill:#fff;}</style></defs><path class="cls-1" d="M565.39,600H33.82A34.28,34.28,0,0,1-.46,565.72V37.34A37.34,37.34,0,0,1,36.88,0H565.39a34.15,34.15,0,0,1,34.15,34.14V565.86A34.15,34.15,0,0,1,565.39,600ZM146.85,468.07v-7.53c0-36,.05-71.9,0-107.84,0-4.88,1-9,5.24-11.85a13.32,13.32,0,0,1,14.07-1.14c5.16,2.53,7.25,6.79,7.23,12.57-.1,36.15-.05,72.31,0,108.46V468h55.79V460.4q0-53.91,0-107.84c0-9,5.81-14.71,14.15-14.24,7.82.45,12.66,6.2,12.67,15.31q.06,53.61,0,107.22v7.23h54.89a42.46,42.46,0,0,0,.48-4.48c0-38.22.09-76.44,0-114.66,0-11.43-3.61-21.92-9.86-31.47-20-30.55-62.83-40-95.58-21-2.8,1.62-4.87,2.75-8.29.66-15-9.15-31.3-12-48.75-9.63-32.63,4.45-57.24,30.88-57.62,63.45-.45,38-.11,76-.09,114a22.18,22.18,0,0,0,.44,3.12Zm0-209.26V251.5c0-35.93-.08-71.87.14-107.8a18,18,0,0,1,3.12-10.19c3.53-4.66,8.93-5.81,14.54-3.75,5.86,2.15,8.69,6.43,8.68,12.83q-.11,54.53,0,109v7.13h55.79v-7c0-35.93-.09-71.87.13-107.81a18.69,18.69,0,0,1,3.08-10.23c3.43-4.75,8.75-6,14.44-4.07,6.29,2.09,9.17,6.59,9.18,14.47q.06,53.9,0,107.81v6.78h55a21.85,21.85,0,0,0,.38-2.72c0-39,.13-78.07,0-117.1-.05-11.64-4-22.27-10.56-31.86-20.51-29.81-62.21-38.62-94.89-19.89-3.23,1.85-5.43,2.24-8.82.19-14.68-8.89-30.75-11.31-47.65-9.28C116.69,82,91.51,109,91.17,141.64c-.41,38.2-.09,76.42-.07,114.62a19.1,19.1,0,0,0,.37,2.55Zm272.31.28c50,0,90.89-40.65,90.92-90.4,0-50.72-40.14-91.21-90.5-91.23-50.69,0-91.24,40.17-91.33,90.5A91.06,91.06,0,0,0,419.16,259.09Zm.13,209.3c50,0,90.75-40.67,90.79-90.53,0-50.47-40.47-91.28-90.63-91.29a90.91,90.91,0,1,0-.16,181.82Zm-74,55.44c0-5.68-.43-11.05.21-16.28.25-2,2.93-3.72,4.51-5.57,1.33,1.93,3.59,3.75,3.8,5.79.55,5.25.19,10.59.19,16h7.44c0-6.77.23-13.14-.07-19.49-.26-5.53-4.12-8.91-9.43-8.24-2.7.35-5.26,1.88-8.25,3-3.91-3.5-8.5-4.57-13.57-1-.46.33-1.42.06-2.11-.08-2.26-.48-4.5-1-7.24-1.68v27.72h7.87c0-4.91-.08-9.6,0-14.28.09-3.59.36-7.86,5.12-7.34,1.54.17,3.42,4.41,3.73,7,.6,4.79.18,9.7.18,15ZM98.81,524c0-6-.45-11.44.23-16.71.26-1.93,3.18-3.52,4.89-5.27,1.2,1.81,3.28,3.54,3.44,5.43.47,5.45.17,11,.17,16.83l7.54-.39c0-5.13-.21-9.85.08-14.55.19-3.27.6-7.23,5.08-7.19,4.74,0,3.6,4.31,3.77,7.08.31,4.84.09,9.72.09,14.62h7.35c0-6.93.33-13.53-.1-20.08-.39-5.93-6-9.28-11.66-7.37-1.91.64-3.6,1.93-5.62,3-6.78-7.95-15.24,1.14-22.56-3.15V524Zm83-.76c6,.49,11.53,1.9,16.68,1,3.38-.58,7.46-3.86,9-7,2.74-5.72,2.55-12.27-1.85-17.51s-10.1-4.48-16.48-1.14V486.46H182c-.1,1.87-.25,3.47-.25,5.08C181.76,502.23,181.77,512.92,181.77,523.19Zm300.07-26.07c2.68,7.13,5.19,13.86,7.73,20.57,3.43,9,3.31,9.34-6.95,13,1.61,1.78,3.21,4.59,4.14,4.38,3.58-.8,8.9-1.66,10.05-4.13,5.07-10.88,8.92-22.33,13.21-33.57-5.95-2.24-8.43-.14-9.64,4.83-1,4-2.56,7.77-4.27,12.81-1.73-5-3.49-8.71-4.28-12.65C490.69,496.71,487.56,495.44,481.84,497.12ZM284.1,512.67c.93-9.88-3.27-16-11.07-16.72-7.55-.73-13.22,4.23-14.13,12.36-1,8.68,3.37,15.35,10.57,16.2,8.18,1,12.69-1.7,13.89-9.52-3.05,1-5.74,1.37-7.88,2.65-4.44,2.68-7.17,1.3-7.89-5Zm189.06,0c.63-10.27-3.05-15.69-10.66-16.65a12.52,12.52,0,0,0-14.12,10.09c-1.87,8.76,1.76,16.48,8.55,18.23,7.74,2,13.22-.61,16.19-8.8-3.17.61-6.05.48-8.11,1.72-4.93,3-7.12,2.19-8.89-4.59h17Zm-316.72,12c8.82.14,14.32-5.23,14.38-14.07s-5.59-14.65-14-14.64-13.9,5.6-14.09,14C142.51,519,147.63,524.44,156.44,524.59Zm230.29,0c8.44,0,14.24-5.78,14.25-14.29s-6-14.45-14.3-14.42-14.22,6.05-14.18,14.52C372.55,519.19,377.92,524.55,386.73,524.59Zm43-.86h7.42c0-6.82.13-13.2,0-19.57-.14-5.24-3.38-8.1-8.32-8.13-5.32,0-10.65.81-16.11,1.29v26.95l7.07-.54V509.79c0-4,.7-8,5.75-7.73,4.7.2,4.16,4.29,4.21,7.55C429.75,514.14,429.7,518.67,429.7,523.73Zm-181.93.14V486.6h-6.71v37.27Zm-20.59,0v-27h-6.53v27Zm.26-37.25h-7.25l.29,6.18h7Z"/><path class="cls-2" d="M146.85,468.07H91.53a22.18,22.18,0,0,1-.44-3.12c0-38-.36-76,.09-114,.38-32.57,25-59,57.62-63.45,17.45-2.37,33.75.48,48.75,9.63,3.42,2.09,5.49,1,8.29-.66,32.75-19,75.62-9.51,95.58,21,6.25,9.55,9.83,20,9.86,31.47.12,38.22.05,76.44,0,114.66a42.46,42.46,0,0,1-.48,4.48H255.94v-7.23q0-53.61,0-107.22c0-9.11-4.85-14.86-12.67-15.31-8.34-.47-14.14,5.28-14.15,14.24q0,53.93,0,107.84V468H173.3v-7.3c0-36.15-.06-72.31,0-108.46,0-5.78-2.07-10-7.23-12.57A13.32,13.32,0,0,0,152,340.85c-4.2,2.84-5.25,7-5.24,11.85.1,35.94,0,71.89,0,107.84Z"/><path class="cls-2" d="M146.85,258.81H91.47a19.1,19.1,0,0,1-.37-2.55c0-38.2-.34-76.42.07-114.62C91.51,109,116.69,82,149.34,78.08c16.9-2,33,.39,47.65,9.28,3.39,2,5.59,1.66,8.82-.19,32.68-18.73,74.38-9.92,94.89,19.89,6.59,9.59,10.51,20.22,10.56,31.86.16,39,.05,78.07,0,117.1a21.85,21.85,0,0,1-.38,2.72h-55V252q0-53.91,0-107.81c0-7.88-2.89-12.38-9.18-14.47-5.69-1.89-11-.68-14.44,4.07A18.69,18.69,0,0,0,229.22,144c-.22,35.94-.13,71.88-.13,107.81v7H173.3v-7.13q0-54.52,0-109c0-6.4-2.82-10.68-8.68-12.83-5.61-2.06-11-.91-14.54,3.75A18,18,0,0,0,147,143.7c-.22,35.93-.14,71.87-.14,107.8Z"/><path class="cls-2" d="M419.16,259.09A91.06,91.06,0,0,1,328.25,168c.09-50.33,40.64-90.51,91.33-90.5,50.36,0,90.53,40.51,90.5,91.23C510.05,218.44,469.16,259.1,419.16,259.09Zm-.25-51.86a39.15,39.15,0,1,0,.27-78.3,39.15,39.15,0,0,0-.27,78.3Z"/><path class="cls-2" d="M419.29,468.39a90.91,90.91,0,1,1,.16-181.82c50.16,0,90.67,40.82,90.63,91.29C510,427.72,469.25,468.39,419.29,468.39Zm39.13-90.64a39.25,39.25,0,1,0-39.62,39A39.17,39.17,0,0,0,458.42,377.75Z"/><path class="cls-2" d="M345.34,523.83l-7.59.39c0-5.25.42-10.16-.18-15-.31-2.55-2.19-6.79-3.73-7-4.76-.52-5,3.75-5.12,7.34-.11,4.68,0,9.37,0,14.28h-7.87V496.21c2.74.64,5,1.2,7.24,1.68.69.14,1.65.41,2.11.08,5.07-3.52,9.66-2.45,13.57,1,3-1.13,5.55-2.66,8.25-3,5.31-.67,9.17,2.71,9.43,8.24.3,6.35.07,12.72.07,19.49h-7.44c0-5.38.36-10.72-.19-16-.21-2-2.47-3.86-3.8-5.79-1.58,1.85-4.26,3.56-4.51,5.57C344.91,512.78,345.34,518.15,345.34,523.83Z"/><path class="cls-2" d="M98.81,524h-7.3v-27.7c7.32,4.29,15.78-4.8,22.56,3.15,2-1.12,3.71-2.41,5.62-3,5.68-1.91,11.27,1.44,11.66,7.37.43,6.55.1,13.15.1,20.08H124.1c0-4.9.22-9.78-.09-14.62-.17-2.77,1-7-3.77-7.08-4.48,0-4.89,3.92-5.08,7.19-.29,4.7-.08,9.42-.08,14.55l-7.54.39c0-5.86.3-11.38-.17-16.83-.16-1.89-2.24-3.62-3.44-5.43-1.71,1.75-4.63,3.34-4.89,5.27C98.36,512.51,98.81,517.91,98.81,524Z"/><path class="cls-2" d="M181.77,523.19c0-10.27,0-21,0-31.65,0-1.61.15-3.21.25-5.08h7.06v12.09c6.38-3.34,12-4.12,16.48,1.14s4.59,11.79,1.85,17.51c-1.51,3.15-5.59,6.43-9,7C193.3,525.09,187.75,523.68,181.77,523.19Zm22-12.5c-3.57-3.76-5.6-7.78-8.39-8.4-4.6-1-5.94,3.4-6,7.27-.09,4.25.8,9.09,6,8.72C197.91,518.11,200.15,514.15,203.78,510.69Z"/><path class="cls-2" d="M481.84,497.12c5.72-1.68,8.85-.41,10,5.23.79,3.94,2.55,7.68,4.28,12.65,1.71-5,3.3-8.85,4.27-12.81,1.21-5,3.69-7.07,9.64-4.83-4.29,11.24-8.14,22.69-13.21,33.57-1.15,2.47-6.47,3.33-10.05,4.13-.93.21-2.53-2.6-4.14-4.38,10.26-3.65,10.38-3.95,6.95-13C487,511,484.52,504.25,481.84,497.12Z"/><path class="cls-2" d="M284.1,512.67H267.59c.72,6.27,3.45,7.65,7.89,5,2.14-1.28,4.83-1.66,7.88-2.65-1.2,7.82-5.71,10.5-13.89,9.52-7.2-.85-11.55-7.52-10.57-16.2.91-8.13,6.58-13.09,14.13-12.36C280.83,496.7,285,502.79,284.1,512.67Zm-17.64-6.39,1,1.39h9.31l.86-1.62c-2-1.37-4-3.69-6.12-3.82C269.92,502.14,268.15,504.83,266.46,506.28Z"/><path class="cls-2" d="M473.16,512.62h-17c1.77,6.78,4,7.55,8.89,4.59,2.06-1.24,4.94-1.11,8.11-1.72-3,8.19-8.45,10.78-16.19,8.8-6.79-1.75-10.42-9.47-8.55-18.23A12.52,12.52,0,0,1,462.5,496C470.11,496.93,473.79,502.35,473.16,512.62ZM455.32,506l.94,1.52h9.36l.85-1.66c-1.84-1.32-3.71-3.73-5.49-3.67C459.05,502.29,457.2,504.66,455.32,506Z"/><path class="cls-2" d="M156.44,524.59c-8.81-.15-13.93-5.64-13.73-14.7.19-8.41,5.81-14,14.09-14s14.08,5.89,14,14.64S165.26,524.73,156.44,524.59Zm-5.9-15.5c0,5.73,1.39,9.32,6.51,9.18,4.69-.13,6-3.57,6.12-7.7.13-4.46-1.44-8.12-6.27-8.21S150.45,506,150.54,509.09Z"/><path class="cls-2" d="M386.73,524.59c-8.81,0-14.18-5.4-14.23-14.19,0-8.47,5.84-14.5,14.18-14.52s14.31,6,14.3,14.42S395.17,524.63,386.73,524.59Zm7.6-15.73c-2.43-2.23-4.64-5.92-7.35-6.34-4.68-.73-6.73,3.31-6.77,7.67s1.5,8,6.51,8.08C391.93,518.34,392.91,514.42,394.33,508.86Z"/><path class="cls-2" d="M429.7,523.73c0-5.06.05-9.59,0-14.12-.05-3.26.49-7.35-4.21-7.55-5.05-.22-5.76,3.7-5.75,7.73v13.94l-7.07.54V497.32c5.46-.48,10.79-1.33,16.11-1.29,4.94,0,8.18,2.89,8.32,8.13.17,6.37,0,12.75,0,19.57Z"/><path class="cls-2" d="M247.77,523.87h-6.71V486.6h6.71Z"/><path class="cls-2" d="M227.18,523.86h-6.53v-27h6.53Z"/><path class="cls-1" d="M227.44,486.61v6.18h-7l-.29-6.18Z"/><path class="cls-1" d="M418.91,207.23a39.15,39.15,0,1,1,39.51-38.95A39.07,39.07,0,0,1,418.91,207.23Z"/><path class="cls-1" d="M458.42,377.75a39.25,39.25,0,1,1-39.09-39.52A39.14,39.14,0,0,1,458.42,377.75Z"/><path class="cls-1" d="M203.78,510.69c-3.63,3.46-5.87,7.42-8.37,7.59-5.25.37-6.14-4.47-6-8.72.09-3.87,1.43-8.29,6-7.27C198.18,502.91,200.21,506.93,203.78,510.69Z"/><path class="cls-1" d="M266.46,506.28c1.69-1.45,3.46-4.14,5.06-4,2.11.13,4.09,2.45,6.12,3.82l-.86,1.62h-9.31Z"/><path class="cls-1" d="M455.32,506c1.88-1.37,3.73-3.74,5.66-3.81,1.78-.06,3.65,2.35,5.49,3.67l-.85,1.66h-9.36Z"/><path class="cls-1" d="M150.54,509.09c-.09-3.14,1.44-6.82,6.36-6.73s6.4,3.75,6.27,8.21c-.11,4.13-1.43,7.57-6.12,7.7C151.93,518.41,150.57,514.82,150.54,509.09Z"/><path class="cls-1" d="M394.33,508.86c-1.42,5.56-2.4,9.48-7.61,9.41-5-.08-6.56-3.8-6.51-8.08s2.09-8.4,6.77-7.67C389.69,502.94,391.9,506.63,394.33,508.86Z"/></svg>