<svg id="Layer_1" data-name="Layer 1" xmlns="http://www.w3.org/2000/svg" viewBox="0 0 600 600"><defs><style>.cls-1{fill:#f77f00;}.cls-2{fill:#fcbf49;opacity:0.2;}.cls-3{fill:#d62828;}</style></defs><path class="cls-1" d="M593.92,300h0a6,6,0,0,1-6-5.88c-3.09-154.38-127.67-278.95-282-282a6,6,0,0,1-5.88-6h0a6,6,0,0,1,6.14-6c160.81,3.23,290.57,133,293.8,293.8A6,6,0,0,1,593.92,300Z"/><circle class="cls-2" cx="300" cy="300" r="272.66"/><path d="M240.28,78.5a5.34,5.34,0,0,1,1.24-3.84c.8-.84-.55-2.14-1.36-1.29a8.2,8.2,0,0,0-2.2,5.18C237.83,80,240.31,80,240.28,78.5Z"/><path d="M235.25,90.7c.78-2.17,1.56-4.34,1.34-6.65a1,1,0,1,0-2,0,13.33,13.33,0,0,1-1.7,5.67C232,91.27,234.46,92.54,235.25,90.7Z"/><path d="M230.37,101.91c.81-.69.79-1.68,1.1-2.68a21.33,21.33,0,0,1,.76-3.16c.31-.84-1-1.47-1.51-.63a19.46,19.46,0,0,0-1.09,2.84,10.06,10.06,0,0,0-.77,3A.88.88,0,0,0,230.37,101.91Z"/><path d="M220,110.42a16.91,16.91,0,0,0,3.88,2.89,1.22,1.22,0,0,0,1.48-.2,10.57,10.57,0,0,0,2.49-7.17c0-1.16-1.68-1-1.66,0a8,8,0,0,1-2,4.69,13.19,13.19,0,0,1-2.53-1.93C220.56,107.59,218.78,109.29,220,110.42Z"/><path d="M214,104.43a1.17,1.17,0,0,1,.53,1.47c-.31,1,1.19,1.47,1.67.63a2.49,2.49,0,0,0-.07-3,4.38,4.38,0,0,0-2.36-1.93c-.83-.15-1.48.53-1.13,1.18C212.85,103.62,213.36,103.94,214,104.43Z"/><path d="M203.88,94.72a19.31,19.31,0,0,0,2.67,1.1,22.58,22.58,0,0,1,3,1.25c.84.32,1.47-.86.64-1.17-.84-.48-1.85-1-2.69-1.43a25.43,25.43,0,0,0-2.85-1.59C203.32,92.25,202.87,94.08,203.88,94.72Z"/><path d="M198.38,85.73c.84.81,1.68,1.45,2.7,2.26a.7.7,0,0,0,1-1c-.85-.8-1.53-1.78-2.38-2.59-.68-.81-1.54-2.12-2.53-2.26-.84-.15-1.48.53-1.14,1.18C196.19,84.46,197.53,85.09,198.38,85.73Z"/><path d="M191,75.46c-.33,0,.35.49.35.66.17.33.52.82.69,1.14a7.17,7.17,0,0,0,1.36,1.79c.85.81,1.82-.37,1.14-1.18a7.33,7.33,0,0,1-1-2c-.18-.5-.52-1-.7-1.48,1.31-.86,2.64-.72,4.12-1.09a1.37,1.37,0,0,0-.06-2.64,7.42,7.42,0,0,0-6.57,2.3A1.56,1.56,0,0,0,191,75.46Z"/><path d="M233.73,67.38c1.32-.36,2.46-1,4-1.08,1.33,0,2,1.45,2,2.61.19,1.15,1.67.62,1.82-.21.12-2-.43-4.13-2.6-4.91a7.64,7.64,0,0,0-6.26,1.13A1.36,1.36,0,0,0,233.73,67.38Z"/><path d="M223.3,67.29c1,.31,2.31-.22,3.32.42.84.64,2-.54,1.13-1.18a4.9,4.9,0,0,0-4.49-1.06A.93.93,0,0,0,223.3,67.29Z"/><path d="M219.93,64.55c.19,1.15,1.68,1.12,1.65,0,.12-2,.41-4,.36-6a1.32,1.32,0,0,0-2.64.06C219.34,60.59,219.72,62.57,219.93,64.55Z"/><path d="M219.4,48.66c.2,1.49.4,2.81.6,4.29,0,.67,1.17.64,1.15,0,.14-1.33.28-2.49.42-3.82s.43-2.66-.25-3.8a.94.94,0,0,0-1.66,0A4.57,4.57,0,0,0,219.4,48.66Z"/><path d="M218.94,35.59a6.32,6.32,0,0,0,.21,1.82l.54,2c0,.5.84.48,1,0a6.51,6.51,0,0,1,.46-1.67,7,7,0,0,0,.13-1.82c.14-1.16.43-2.83-.41-3.63a1.23,1.23,0,0,0-1.49,0C218.56,33.28,218.92,34.6,218.94,35.59Z"/><path d="M220.07,26.79c0,1,1.35,1,1.49,0,.11-2.65.7-5.81.14-8.44a1.1,1.1,0,0,0-2.15,0C219.11,21,219.85,24.14,220.07,26.79Z"/><path d="M210.91,17.22a1.24,1.24,0,0,0,1.68.79.88.88,0,0,0,.81-.51.62.62,0,0,0,.33-.17,2,2,0,0,1,1-.19,1.75,1.75,0,0,0,.49-.18c1.32-.19,1.28-2.18,0-2.15a8.25,8.25,0,0,0-3.47.74C211.05,16.06,210.73,16.56,210.91,17.22Z"/><path d="M199.73,20.79a8.55,8.55,0,0,0,3-.4,20,20,0,0,1,4.3-.6c1,0,1-1.51,0-1.65-2.32-.11-6.48-1-7.92,1.5C199.05,20,199.24,20.8,199.73,20.79Z"/><path d="M189.89,25c1.31-.86,3-1.22,4.26-2.08,1.14-.69.11-2.32-1-1.8-1.31.69-3,.89-4.27,1.59C187.21,23.39,188.42,25.84,189.89,25Z"/><path d="M188,30a7.82,7.82,0,0,1,2.53,2.1,15,15,0,0,0,2,2.44.91.91,0,0,0,1.31-.86c0-1.33-1.05-2.3-1.9-3.11a10.67,10.67,0,0,0-3.19-2.08C188,28.17,187.18,29.51,188,30Z"/><path d="M194.54,40.28c.34.49.52.81.86,1.3a4,4,0,0,1,.37,2,1.16,1.16,0,0,0,2.32-.05,4.46,4.46,0,0,0-.88-2.46,8.47,8.47,0,0,0-1.86-1.62A.61.61,0,0,0,194.54,40.28Z"/><path d="M199.07,50.11a17.91,17.91,0,0,0,1.38,2.46c.51.81.7,1.8,1.22,2.78.35,1,1.84,1,2,0,.45-2.33-1.91-4.26-3.11-6.06A.85.85,0,1,0,199.07,50.11Z"/><path d="M204.63,61.75c1,1.3,1.55,2.78,2.73,3.91S210,65.1,209,64a28.86,28.86,0,0,0-2.89-3.42C205.25,59.91,204,60.93,204.63,61.75Z"/><path d="M202.33,70.08c.68.64,1.5.46,2.33.44,1,0,1.82-.2,2.81-.23a1,1,0,1,0-.05-2c-.82,0-1.66-.13-2.48-.11-1,0-2-.12-2.64.55A.78.78,0,0,0,202.33,70.08Z"/><path class="cls-3" d="M546.74,266.12a3.73,3.73,0,0,0-2.07-6.36L532.28,258a.76.76,0,0,1-.56-.41l-5.54-11.22a3.73,3.73,0,0,0-6.69,0L514,257.55a.76.76,0,0,1-.56.41L501,259.76a3.72,3.72,0,0,0-2.07,6.36l9,8.74a.76.76,0,0,1,.21.66L506,287.85a3.69,3.69,0,0,0,1.48,3.65,3.73,3.73,0,0,0,3.93.29L522.49,286a.76.76,0,0,1,.69,0l11.08,5.83a3.73,3.73,0,0,0,1.74.43,3.75,3.75,0,0,0,3.68-4.37l-2.12-12.33a.76.76,0,0,1,.21-.66ZM534.62,276l2.11,12.34a.74.74,0,0,1-.29.73.73.73,0,0,1-.79.05l-11.08-5.82a3.72,3.72,0,0,0-3.47,0L510,289.14a.71.71,0,0,1-.78-.05.73.73,0,0,1-.3-.73L511.06,276a3.75,3.75,0,0,0-1.08-3.3L501,264a.73.73,0,0,1-.19-.76.75.75,0,0,1,.6-.51l12.39-1.8a3.76,3.76,0,0,0,2.81-2l5.54-11.22a.72.72,0,0,1,.67-.42.73.73,0,0,1,.67.42h0L529,258.87a3.76,3.76,0,0,0,2.81,2l12.39,1.8a.74.74,0,0,1,.41,1.27l-9,8.74A3.72,3.72,0,0,0,534.62,276Z"/><path class="cls-3" d="M540.28,246.33a1.49,1.49,0,0,0-2.09.33l-1.58,2.18a1.49,1.49,0,1,0,2.41,1.75l1.59-2.18A1.5,1.5,0,0,0,540.28,246.33Z"/><path class="cls-3" d="M509.06,248.83l-1.59-2.18a1.49,1.49,0,0,0-2.41,1.75l1.58,2.18a1.48,1.48,0,0,0,1.21.62,1.45,1.45,0,0,0,.88-.29A1.5,1.5,0,0,0,509.06,248.83Z"/><path class="cls-3" d="M500,277.74a1.5,1.5,0,0,0-1.88-1l-2.56.84a1.49,1.49,0,0,0,.46,2.91,1.47,1.47,0,0,0,.46-.07l2.57-.84A1.48,1.48,0,0,0,500,277.74Z"/><path class="cls-3" d="M522.84,294.32a1.5,1.5,0,0,0-1.5,1.49v2.7a1.5,1.5,0,0,0,3,0v-2.7A1.49,1.49,0,0,0,522.84,294.32Z"/><path class="cls-3" d="M550.1,277.62l-2.56-.83a1.49,1.49,0,1,0-.92,2.83l2.56.84a1.47,1.47,0,0,0,.46.07,1.49,1.49,0,0,0,.46-2.91Z"/></svg>