<svg id="Layer_1" data-name="Layer 1" xmlns="http://www.w3.org/2000/svg" viewBox="0 0 600 600"><defs><style>.cls-1{fill:#f77f00;}.cls-2{fill:#fcbf49;opacity:0.2;}.cls-3{fill:#d62828;}</style></defs><path class="cls-1" d="M593.92,300h0a6,6,0,0,1-6-5.88c-3.09-154.38-127.67-278.95-282-282a6,6,0,0,1-5.88-6h0a6,6,0,0,1,6.14-6c160.81,3.23,290.57,133,293.8,293.8A6,6,0,0,1,593.92,300Z"/><circle class="cls-2" cx="300" cy="300" r="272.66"/><path d="M37.47,88.55c-1.06,1.13-2.68,1.72-3.48,3a1.61,1.61,0,0,0,.58,2.51c.93.23,1.88-.43,2.67-.84a1.18,1.18,0,0,0,.55-1.45,5.74,5.74,0,0,0,1.33-1.85C39.76,88.9,38.33,87.47,37.47,88.55Z"/><path d="M32,102.83a28.45,28.45,0,0,0-2.73,4.39c-.76,1.49-1.62,3.46-1.28,4.92.19.84,1.33,1,1.61.29.8-1.29.62-3,1.16-4.46A17.9,17.9,0,0,1,33,103.48C33.28,102.75,32.3,102.32,32,102.83Z"/><path d="M31.33,122.83a23.39,23.39,0,0,1-1.89-5.3c-.15-.62-1.19-.38-1.05.25.59,2.51.5,7.82,3.4,8.91.51.32,1-.45.9-.87A16.69,16.69,0,0,0,31.33,122.83Z"/><path d="M44.89,128.05c-3.25,1.2-6,2.51-9.56,1.56-.46-.11-.57.36-.11.47,3.67,1.57,7.47,1.79,10.59-.92C46.55,128.55,45.47,127.7,44.89,128.05Z"/><path d="M57.42,113.67c-1.52,1-2.49,2.57-3.71,4a44,44,0,0,0-3.68,5c-.32.51.51,1.2,1,.64a31.84,31.84,0,0,1,3.45-4.11c1.22-1.39,2.91-2.66,3.87-4.21C58.87,114.22,58.16,113.06,57.42,113.67Z"/><path d="M67.94,95.36c-3.43,2.34-6.16,6.72-8.19,10.28a.61.61,0,0,0,1,.64,55.86,55.86,0,0,1,4.46-5.45,34.94,34.94,0,0,0,3.67-4.15C69.34,95.69,68.52,95,67.94,95.36Z"/><path d="M84.75,83.29c-3.81.67-7.23,3-10.29,5a.55.55,0,0,0,.45,1,48.39,48.39,0,0,1,10.28-4.16C86.19,84.72,85.8,83.05,84.75,83.29Z"/><path d="M100.37,86.94a29.59,29.59,0,0,0-4.59-2.68,1.06,1.06,0,0,0-1.12,1.8c1.29.8,2.62,1.81,4,2.83s2.82,2.65,4.53,3.35a.89.89,0,0,0,1-1.33C103.77,89.23,101.92,87.9,100.37,86.94Z"/><path d="M107,97.31c-.19-.84-1.66-.5-1.46.34a62.7,62.7,0,0,1,.36,6.31c0,2-.59,4.1-.1,6.19a1,1,0,0,0,2,0C108.81,106.14,108.06,101,107,97.31Z"/><path d="M102.89,120.52c-.71,1.71-1.41,3.42-2.12,5.12-.49,1.66-1.62,3.47-1.44,5.19.2.84,1.08.85,1.66.5,1.32-1,1.51-3,1.84-4.4.66-1.92,1.06-4,1.72-5.91A.87.87,0,0,0,102.89,120.52Z"/><path d="M96,138.22a27.68,27.68,0,0,0-3.39,6.3c-.81,2.18-1.86,5.28-.9,7.49a1,1,0,0,0,2,0c.7-1.71.43-3.85.66-5.67a23.75,23.75,0,0,1,2.37-7.82C97.07,138.19,96.3,137.71,96,138.22Z"/><path d="M88.82,161.49a21.82,21.82,0,0,0-3.24,6.93c-.72,2.59-1.5,5.86-.5,8.27a.94.94,0,0,0,1.72-.18c.82-2.17.24-4.68.59-7a25.37,25.37,0,0,1,2.41-7.61C90.13,161.41,89.3,160.72,88.82,161.49Z"/><path d="M96.05,193.54a12.68,12.68,0,0,1-4.4-1.84A12.75,12.75,0,0,1,88.78,186c-.15-.62-1.19-.38-1,.25.51,4.07,3,10.78,8.34,9.3C96.86,195.12,97,193.77,96.05,193.54Z"/><path d="M119.92,195.71c-2.35.33-4.55,1.28-6.85,1.81a15.41,15.41,0,0,1-8.58-.87c-.47-.11-.53.57-.27.73,5.17,2.32,11.91,3.84,16.82.28A1.17,1.17,0,0,0,119.92,195.71Z"/><path d="M134.4,177.35c-1.27,1.18-2.24,2.73-3.67,4.16a13.17,13.17,0,0,1-4.47,2.59c-1,.45-.65,1.91.39,1.67,3.82-.67,8.33-3,9.6-7.08C136.84,177.45,135.35,176.69,134.4,177.35Z"/><path d="M140.06,162.81c-2.09,3.35-4.34,7-5.44,10.75-.39,1.19,1.22,1.47,1.65.49,1.62-3.46,4.9-6.43,5.75-10.37C142,162.58,140.7,161.78,140.06,162.81Z"/><path d="M155.79,159.37c-.92-1.11-2.79-1.55-4.19-1.89a12.5,12.5,0,0,0-5,.28.76.76,0,1,0,.34,1.47,8.85,8.85,0,0,1,4.22.12c1.19.38,2.27,1.24,3.46,1.62A1,1,0,0,0,155.79,159.37Z"/><path d="M170.24,164.61c-4.05-4.13-7.2-9.13-10.87-13.56-1.79-2-4.65.86-3.07,2.92,2.85,3.74,5.55,7.74,9,11.14-1.83.64-3.67,1.29-5.71,2-.79.41-2.25.75-2.69,1.73l-.16.26a.22.22,0,0,0-.16.26c-.32.51.3,1.25.71,1.15h0c.26.16.47.12.89,0a19.24,19.24,0,0,0,3.35-.78,52.73,52.73,0,0,1,7.9-2.06C170.71,167.59,171.16,165.72,170.24,164.61Z"/><path class="cls-3" d="M400.38,85.83A4,4,0,0,0,398.15,79L384.81,77a.84.84,0,0,1-.61-.44l-6-12.09a4,4,0,0,0-7.21,0l-6,12.09a.82.82,0,0,1-.61.44L351.11,79a4,4,0,0,0-3.24,2.74,4,4,0,0,0,1,4.12l9.65,9.41a.82.82,0,0,1,.23.71l-2.28,13.29a4,4,0,0,0,5.83,4.24l11.94-6.28a.81.81,0,0,1,.74,0l11.94,6.28a4,4,0,0,0,5.83-4.24L390.49,96a.82.82,0,0,1,.23-.71ZM387.32,96.5l2.28,13.28a.81.81,0,0,1-1.17.85l-11.93-6.27a4,4,0,0,0-3.74,0l-11.93,6.27a.79.79,0,0,1-.85-.06.8.8,0,0,1-.32-.79l2.28-13.28a4,4,0,0,0-1.16-3.56l-9.65-9.41a.79.79,0,0,1-.2-.83.76.76,0,0,1,.65-.54l13.34-1.94a4,4,0,0,0,3-2.2l6-12.09a.8.8,0,0,1,1.44,0h0l6,12.09a4,4,0,0,0,3,2.2l13.34,1.94a.76.76,0,0,1,.65.54.79.79,0,0,1-.2.83l-9.65,9.41A4,4,0,0,0,387.32,96.5Z"/><path class="cls-3" d="M393.42,64.51a1.6,1.6,0,0,0-2.25.35l-1.71,2.35a1.61,1.61,0,1,0,2.61,1.89l1.7-2.35A1.59,1.59,0,0,0,393.42,64.51Z"/><path class="cls-3" d="M359.79,67.2l-1.71-2.35a1.61,1.61,0,0,0-2.6,1.89l1.71,2.35a1.58,1.58,0,0,0,1.3.67,1.56,1.56,0,0,0,.94-.31A1.61,1.61,0,0,0,359.79,67.2Z"/><path class="cls-3" d="M350.05,98.35a1.6,1.6,0,0,0-2-1l-2.76.89a1.61,1.61,0,0,0,.5,3.14,1.4,1.4,0,0,0,.49-.08l2.76-.89A1.62,1.62,0,0,0,350.05,98.35Z"/><path class="cls-3" d="M374.63,116.2a1.61,1.61,0,0,0-1.61,1.61v2.91a1.61,1.61,0,0,0,3.22,0v-2.91A1.61,1.61,0,0,0,374.63,116.2Z"/><path class="cls-3" d="M404,98.22l-2.76-.9a1.61,1.61,0,1,0-1,3.06l2.76.9a1.68,1.68,0,0,0,.5.07,1.6,1.6,0,0,0,.49-3.13Z"/></svg>