<svg id="Layer_1" data-name="Layer 1" xmlns="http://www.w3.org/2000/svg" viewBox="0 0 600 600"><defs><style>.cls-1{fill:#f77f00;}.cls-2{fill:#fcbf49;opacity:0.2;}.cls-3{fill:#d62828;}</style></defs><path class="cls-1" d="M593.92,300h0a6,6,0,0,1-6-5.88c-3.09-154.38-127.67-278.95-282-282a6,6,0,0,1-5.88-6h0a6,6,0,0,1,6.14-6c160.81,3.23,290.57,133,293.8,293.8A6,6,0,0,1,593.92,300Z"/><circle class="cls-2" cx="300" cy="300" r="272.66"/><path d="M575.75,345.85a1.26,1.26,0,0,0,0,2.12c1.16,1,2.51.58,4.06.58a29.92,29.92,0,0,1,5.79.58c1.54.39,2.12-1.93.77-2.51a21,21,0,0,0-5-1.15C579.42,345.27,577.3,344.69,575.75,345.85Z"/><path d="M567.65,345.66a19.47,19.47,0,0,1-3.28.77,5.35,5.35,0,0,0-1.74,0,4.85,4.85,0,0,0-1.54.58,1.26,1.26,0,0,0,0,2.12,4.87,4.87,0,0,0,3.67.2,15.17,15.17,0,0,0,3.85-1.36A1.27,1.27,0,0,0,567.65,345.66Z"/><path d="M543.92,347a1.28,1.28,0,0,0,0,1.93c1,.77,1.73.58,2.89.58s2.12-.19,3.28-.19a1.16,1.16,0,0,0,0-2.32c-1,0-1.93-.19-2.89-.19C546,346.43,545.07,346,543.92,347Z"/><path d="M535.23,346.82c-2.12.77-4.24.38-6.37,1a1.34,1.34,0,0,0,0,2.51c2.32.77,5,0,7.14-1.35C537.16,348.36,536.39,346.43,535.23,346.82Z"/><path d="M510.53,348.17a1.18,1.18,0,0,0,0,1.54c1.16,1.16,2.7.77,4.25.77a31.67,31.67,0,0,0,4.24-.19,1.21,1.21,0,0,0,0-2.32,26.27,26.27,0,0,0-3.86-.19C513.62,347.4,511.88,347,510.53,348.17Z"/><path d="M493.94,350.1a1.6,1.6,0,0,0,2.12,1.54,47.33,47.33,0,0,1,5-.58,1.14,1.14,0,0,0,0-2.12c-1.74-.19-3.48,0-5-.58A1.82,1.82,0,0,0,493.94,350.1Z"/><path d="M493.16,331.77c-4.82,4.43-9.64,9.26-12.73,15.24a1.79,1.79,0,0,0,.38,2.32c4.83,4.05,10.23,7.14,14.86,11.38,1.55,1.54,3.86-1,2.32-2.31-4.25-3.86-9.26-6.76-13.51-10.62,3.09-5,7.53-8.49,11.58-12.93A2.12,2.12,0,0,0,493.16,331.77Z"/><path class="cls-3" d="M163.43,72.85a5.43,5.43,0,0,0-3-9.27L142.4,61a1.09,1.09,0,0,1-.82-.59L133.52,44a5.43,5.43,0,0,0-9.74,0l-8,16.33a1.09,1.09,0,0,1-.82.59l-18,2.62a5.43,5.43,0,0,0-3,9.27l13,12.71a1.1,1.1,0,0,1,.31,1l-3.08,18a5.43,5.43,0,0,0,7.88,5.72l16.12-8.47a1.06,1.06,0,0,1,1,0l16.12,8.47a5.43,5.43,0,0,0,7.88-5.72l-3.08-18a1.1,1.1,0,0,1,.31-1ZM145.8,87.25l3.08,18a1.1,1.1,0,0,1-1.58,1.15l-16.12-8.48a5.45,5.45,0,0,0-5.05,0L110,106.35a1.1,1.1,0,0,1-1.58-1.15l3.08-18a5.42,5.42,0,0,0-1.56-4.8l-13-12.71a1,1,0,0,1-.27-1.12,1.06,1.06,0,0,1,.87-.74l18-2.62a5.39,5.39,0,0,0,4.09-3L127.68,46a1.09,1.09,0,0,1,1.95,0h0l8.06,16.33a5.39,5.39,0,0,0,4.09,3l18,2.62a1.06,1.06,0,0,1,.87.74,1,1,0,0,1-.27,1.12l-13,12.71A5.42,5.42,0,0,0,145.8,87.25Z"/><path class="cls-3" d="M154,44a2.16,2.16,0,0,0-3,.48l-2.31,3.17a2.18,2.18,0,0,0,3.52,2.56l2.3-3.18A2.16,2.16,0,0,0,154,44Z"/><path class="cls-3" d="M108.61,47.68l-2.31-3.17a2.17,2.17,0,0,0-3.52,2.55l2.31,3.18a2.18,2.18,0,1,0,3.52-2.56Z"/><path class="cls-3" d="M95.45,89.75a2.17,2.17,0,0,0-2.74-1.39L89,89.57a2.17,2.17,0,0,0,.67,4.24,2,2,0,0,0,.67-.11l3.73-1.21A2.18,2.18,0,0,0,95.45,89.75Z"/><path class="cls-3" d="M128.66,113.88a2.18,2.18,0,0,0-2.18,2.17V120a2.18,2.18,0,0,0,4.35,0v-3.92A2.17,2.17,0,0,0,128.66,113.88Z"/><path class="cls-3" d="M168.33,89.58l-3.73-1.22a2.18,2.18,0,0,0-1.34,4.14L167,93.71a2.22,2.22,0,0,0,.67.1,2.17,2.17,0,0,0,.67-4.23Z"/></svg>