<svg id="Layer_1" data-name="Layer 1" xmlns="http://www.w3.org/2000/svg" viewBox="0 0 600 600"><defs><style>.cls-1{fill:#f77f00;}.cls-2{fill:#fcbf49;opacity:0.2;}.cls-3{fill:#d62828;}</style></defs><path class="cls-1" d="M593.92,300h0a6,6,0,0,1-6-5.88c-3.09-154.38-127.67-278.95-282-282a6,6,0,0,1-5.88-6h0a6,6,0,0,1,6.14-6c160.81,3.23,290.57,133,293.8,293.8A6,6,0,0,1,593.92,300Z"/><circle class="cls-2" cx="300" cy="300" r="272.66"/><path class="cls-3" d="M80.15,21.63c-4.42-4.65-11.83-6.29-17.44-9-1.32-.83-2.93,1.16-1.52,2.42,5.1,3.57,11.6,7.26,17.45,9.05C80,24.17,81,22.56,80.15,21.63Z"/><path class="cls-3" d="M107.23,48.7c-1.33-6.08-6.62-10.52-11.54-13.22a1,1,0,0,0-1,1.62,38.41,38.41,0,0,1,6.37,6.23c1.6,2.13,2.77,4.36,4.38,6.49C105.88,50.85,107.51,50,107.23,48.7Z"/><path class="cls-3" d="M121.76,87a19.89,19.89,0,0,0-1.4-9.49,42.19,42.19,0,0,0-3.29-8.81.79.79,0,1,0-1.46.58,42.42,42.42,0,0,1,2.16,8.85c.66,3,.46,6.29,1.13,9.33C119,89.05,121.44,88.69,121.76,87Z"/><path class="cls-3" d="M116.58,107a1.27,1.27,0,1,0-2.52-.08c-.32,1.68-.54,3.79-.85,5.47-.65,2.21-2.1,3.93-2.32,6a1.19,1.19,0,0,0,1.85,1.15C115.91,117.45,116.31,111,116.58,107Z"/><path class="cls-3" d="M102.63,145.1A44.42,44.42,0,0,0,107,137c.58-1.51-1-2.5-1.85-1.15a71.33,71.33,0,0,0-4.64,6.83c-1.52,2.42-3.56,4.51-4.29,7.43a1.51,1.51,0,0,0,2.37,1.49A21,21,0,0,0,102.63,145.1Z"/><path class="cls-3" d="M81.47,164.82a65.11,65.11,0,0,1-8.74,5.76c-2.84,1.6-6.2,2.86-8.15,5.39-1.1,1.18.57,2.61,1.7,2.56,3.29-.56,6.37-3.13,9.11-5.16A38.33,38.33,0,0,0,83.08,167C84.35,165.5,82.58,163.64,81.47,164.82Z"/><path class="cls-3" d="M56.64,178.11c-2.76.9-5.69,2.06-8.29,2.68a13.59,13.59,0,0,1-4.24.34c-1.39-.12-1.92-.45-3.39.13a1.77,1.77,0,0,0-.55,2.65c2,2,5.66.92,8.25.3a39.69,39.69,0,0,0,9-4.46C58.22,179.1,57.67,177.64,56.64,178.11Z"/><path class="cls-3" d="M32.13,172.13a8.73,8.73,0,0,1-5.66-.92c-1.32-.82-2.73-2.08-4.46-1.67a1.57,1.57,0,0,0-1.18,1.89c1,4.34,8.58,3.87,11.51,2.71C33.38,173.66,33.26,172.09,32.13,172.13Z"/><path class="cls-3" d="M18.8,155.92a34.5,34.5,0,0,1-5.57-5.74c-1.7-2.56-1.58-5.11-1.54-8.09-.12-1.57-1.87-2.29-3.15-.84-4.81,7.1,3.31,14.06,9.09,16.55C18.58,158,19.6,156.41,18.8,155.92Z"/><path class="cls-3" d="M16.75,129.91c.42-5.36,3.47-9.07,5.38-13.87A1.29,1.29,0,0,0,20,114.72a21.33,21.33,0,0,0-5.09,15.17C15,131,16.34,131.15,16.75,129.91Z"/><path class="cls-3" d="M46.79,84.28c-7.61,1.6-12.88,7.67-16.49,14-.67,1.07,1.17,2.23,1.85,1.15C36,94,41.07,89.31,47.36,86.89A1.34,1.34,0,0,0,46.79,84.28Z"/><path class="cls-3" d="M74.21,74.48C68,73.93,61.39,76.19,55.63,79c-1.46.58-.29,2.81.91,2.07C62.23,79,68.2,78.21,74.08,77,75.81,76.6,75.6,74.6,74.21,74.48Z"/><path class="cls-3" d="M99.53,68.6c-3.69-2.31-9.93-1.72-14-.51a1.33,1.33,0,1,0,.57,2.6,20.5,20.5,0,0,1,6.5-.42c2.09.18,4.27.8,6.52.71C100.27,70.94,100.32,69.1,99.53,68.6Z"/><path class="cls-3" d="M141.92,79.42c-2.1-1.32-4.72-1.84-7-2.89-3-1.11-5.78-2.49-8.83-2.9a1.31,1.31,0,0,0-.82,2.48,82,82,0,0,1,8.06,3.55c2.27,1,4.91,2.7,7.6,2.51A1.49,1.49,0,0,0,141.92,79.42Z"/><path class="cls-3" d="M167.06,91.41c-2.92-3-7.64-4.78-11.5-6.82a1.11,1.11,0,1,0-1.18,1.88c3.53,2.58,7,5.86,11.17,7.37A1.46,1.46,0,0,0,167.06,91.41Z"/><path class="cls-3" d="M190.73,108.11c-1.51-1.7-3.52-2.58-5.37-3.74a50.4,50.4,0,0,0-6-3.36c-1.32-.82-2.67,1.33-1.35,2.15a50.41,50.41,0,0,1,5.63,3.9c1.84,1.16,3.52,2.58,5.7,3.2C190.44,110.92,191.45,109.31,190.73,108.11Z"/><path class="cls-3" d="M212.1,122.61a140.73,140.73,0,0,0-4.48-16.29c-1.28-3.8-2.71-10.31-6.3-12.19a2.33,2.33,0,0,0-3.44,2c-.1,3.68,2.58,7.61,3.94,10.71a129.69,129.69,0,0,1,4,13,197.08,197.08,0,0,0-20.44-1.93c-2.09-.19-2.89,3.43-.7,4,7.93,2,16.43,1.3,24.12,4.24C210.53,126.88,212.31,124.62,212.1,122.61Z"/><path d="M466.11,143.79a4.2,4.2,0,0,0-2.33-7.18l-14-2a.83.83,0,0,1-.63-.46l-6.25-12.66a4.22,4.22,0,0,0-7.55,0l-6.24,12.66a.85.85,0,0,1-.64.46l-14,2a4.21,4.21,0,0,0-2.33,7.18l10.11,9.85a.83.83,0,0,1,.24.75l-2.39,13.91a4.21,4.21,0,0,0,6.11,4.43l12.49-6.56a.85.85,0,0,1,.79,0L452,172.73a4.21,4.21,0,0,0,6.11-4.43l-2.39-13.91a.88.88,0,0,1,.24-.75ZM452.44,155l2.39,13.91a.84.84,0,0,1-1.22.88l-12.49-6.56a4.16,4.16,0,0,0-2-.49,4.1,4.1,0,0,0-2,.49l-12.49,6.56a.83.83,0,0,1-.89-.06.81.81,0,0,1-.34-.82L425.87,155a4.23,4.23,0,0,0-1.21-3.73l-10.11-9.85a.82.82,0,0,1-.21-.87.83.83,0,0,1,.68-.57l14-2a4.23,4.23,0,0,0,3.17-2.3L438.4,123a.84.84,0,0,1,1.51,0h0l6.25,12.66a4.21,4.21,0,0,0,3.17,2.3l14,2a.83.83,0,0,1,.68.58.81.81,0,0,1-.21.86l-10.11,9.85A4.23,4.23,0,0,0,452.44,155Z"/><path d="M458.83,121.46a1.69,1.69,0,0,0-2.35.37l-1.79,2.46a1.69,1.69,0,0,0,.37,2.36,1.74,1.74,0,0,0,1,.32,1.66,1.66,0,0,0,1.36-.7l1.79-2.46A1.68,1.68,0,0,0,458.83,121.46Z"/><path d="M423.62,124.28l-1.79-2.46a1.69,1.69,0,0,0-2.73,2l1.79,2.46a1.69,1.69,0,1,0,2.73-2Z"/><path d="M413.42,156.89a1.69,1.69,0,0,0-2.12-1.08l-2.9.94a1.7,1.7,0,0,0-1.08,2.13,1.68,1.68,0,0,0,1.6,1.16,1.82,1.82,0,0,0,.52-.08l2.9-.94A1.7,1.7,0,0,0,413.42,156.89Z"/><path d="M439.16,175.59a1.69,1.69,0,0,0-1.69,1.68v3a1.69,1.69,0,1,0,3.37,0v-3A1.68,1.68,0,0,0,439.16,175.59Z"/><path d="M469.91,156.76l-2.89-.94a1.68,1.68,0,1,0-1,3.2l2.89.94a1.88,1.88,0,0,0,.52.08,1.68,1.68,0,0,0,.52-3.28Z"/></svg>