<?xml version="1.0" encoding="utf-8"?>
<!-- Generator: Adobe Illustrator 24.2.1, SVG Export Plug-In . SVG Version: 6.00 Build 0)  -->
<svg version="1.1" id="a139742c-031f-4297-9910-0b661ecf4262"
	 xmlns="http://www.w3.org/2000/svg" xmlns:xlink="http://www.w3.org/1999/xlink" x="0px" y="0px" viewBox="0 0 888.1 535"
	 style="enable-background:new 0 0 888.1 535;" xml:space="preserve">
<style type="text/css">
	.st0{fill:#F4D9D9;}
	.st1{fill:#003049;}
	.st2{fill:#D62828;}
	.st3{fill:#CFCCE0;}
	.st4{fill:#FFFFFF;}
	.st5{fill:#FCBF49;}
	.st6{fill:#F77F00;}
	.st7{fill:#3F3D56;}
</style>
<path class="st0" d="M58.2,391.7l-5.3-21c-9.5-4-19.1-7.5-29-10.4l-0.7,9.8l-2.7-10.8c-12.2-3.5-20.5-5-20.5-5s11.2,42.7,34.8,75.3
	l27.4,4.8l-21.3,3.1c3,3.6,6.1,6.9,9.5,10.1c34.2,31.8,72.4,46.4,85.2,32.6s-4.6-50.7-38.8-82.5c-10.6-9.9-23.9-17.8-37.3-24
	L58.2,391.7z"/>
<path class="st0" d="M109,368.9l6.3-20.8c-6-8.3-12.5-16.3-19.4-23.9l-5.6,8l3.2-10.6c-8.7-9.3-15-14.9-15-14.9S66,349,69.3,389.1
	l21,18.3L70.5,399c0.7,4.6,1.7,9.1,2.9,13.6c12.9,44.9,38,77.1,56.1,71.9s22.3-45.8,9.4-90.7c-4-13.9-11.3-27.6-19.5-39.8L109,368.9
	z"/>
<rect x="0.1" y="487.6" class="st1" width="888" height="2.2"/>
<path class="st1" d="M140.4,255.6c0,0-6.9,83.1-8.4,101c-1,11.2-3.5,22.2-7.4,32.7c0,0-3,5.9-3,11.9v75.7c0,0-5.9,0-4.5,5.9
	s3,16.3,3,16.3h22.3c0,0-1.5-4.5,3-5.9s0-13.4,0-13.4l23.8-89.1l35.6-74.2c0,0,20.8,66.8,25.2,74.2c0,0,16.3,83.1,19.3,90.6
	s4.5,7.4,3,10.4s-1.5,5.9,0,7.4s29.7,0,29.7,0l-7.4-105.4l-13.4-126.2l-68.3-20.8L140.4,255.6z"/>
<path class="st1" d="M136.4,487.2c0,0-7.4-26.7-19.3-5.9s-11.9,28.2-11.9,28.2s-19.3,28.2,7.4,25.2c26.7-3,20.8-16.3,20.8-16.3
	s10.4-5.9,10.4-10.4C143.9,503.6,136.4,487.2,136.4,487.2z"/>
<path class="st1" d="M256.7,484.3c0,0,7.4-26.7,19.3-5.9s11.9,28.2,11.9,28.2s19.3,28.2-7.4,25.2s-20.8-16.3-20.8-16.3
	s-10.4-5.9-10.4-10.4S256.7,484.3,256.7,484.3z"/>
<path class="st2" d="M186.9,55.2c0,0,3,19.3-5.9,23.8s19.3,20.8,26.7,20.8s20.8-14.8,20.8-14.8s-7.4-22.3-5.9-26.7L186.9,55.2z"/>
<circle class="st2" cx="203.2" cy="38.8" r="31.2"/>
<path class="st3" d="M264.1,102.7L227,80.2c0,0-21.1,24-44-2.8l-39.2,10.4l5.9,101c0,0-8.9,40.1-5.9,47.5s-7.4,10.4-4.5,11.9
	s0,11.9,0,11.9s57.9,29.7,121.8,7.4l-5.9-19.3c1.6-5.1,0.5-10.7-3-14.8c0,0,5.9-8.9-1.5-16.3c0,0,3-13.4-4.5-19.3l-1.5-20.8
	l4.5-10.4L264.1,102.7z"/>
<path class="st1" d="M187.3,24.4c0,0-3.7,8,11.2,4.8c0,0,5.6,3.2,5.6-1.6c0,0,7.4,8,9.3,3.2s5.6,1.6,5.6,1.6l3.7-8l3.7,4.8h13
	c0,0,3.7-32.2-40.9-29s-22.7,54.2-22.7,54.2s0.4-9.2,4.1-4.3S187.3,24.4,187.3,24.4z"/>
<path class="st2" d="M277.5,162.1l1.5,31.2c0,0,5.9,57.9-5.9,83.1v13.4c0,0-3,34.1-17.8,32.7s4.5-49,4.5-49l-3-65.3l-3-37.1
	L277.5,162.1z"/>
<path class="st3" d="M247.8,104.2l14.8-2.4c10.7,10.3,17.9,23.5,20.8,38c4.5,23.8,5.9,28.2,5.9,28.2l-35.6,8.9l-19.3-37.1
	L247.8,104.2z"/>
<rect x="184" y="87.2" class="st4" width="234.3" height="116.4"/>
<path class="st5" d="M209.6,94.2c-6-3.6-13.3-3.3-16-3.1c1.1,2.6,4.2,9.1,10.2,12.7c6,3.6,13.3,3.3,16,3.1
	C218.8,104.4,215.6,97.8,209.6,94.2z"/>
<path class="st5" d="M237.9,166.1h-37.6c-4.7,0-8.5,3.8-8.5,8.5s3.8,8.5,8.5,8.5l0,0h37.6c4.7,0,8.5-3.8,8.5-8.5
	S242.6,166.1,237.9,166.1z"/>
<path class="st6" d="M408.3,76.7H197.3c-10.3,0-18.7,8.4-18.7,18.7v0v102.8c0,10.3,8.4,18.7,18.7,18.7h0h210.9
	c10.3,0,18.7-8.4,18.7-18.7V95.4C426.9,85.1,418.6,76.7,408.3,76.7C408.3,76.7,408.3,76.7,408.3,76.7z M192.1,89.4
	c0.4-0.1,10.3-1.8,18.5,3.2c8.2,4.9,11.3,14.4,11.5,14.8l0.3,1l-1.1,0.2c-1.5,0.2-3,0.3-4.6,0.3c-4.9,0.1-9.7-1.1-13.9-3.5
	c-8.2-4.9-11.3-14.4-11.5-14.8l-0.3-1L192.1,89.4z M237.9,184.9h-37.6c-5.7,0-10.3-4.6-10.3-10.4c0-5.7,4.6-10.3,10.3-10.3h37.6
	c5.7,0,10.4,4.6,10.4,10.3C248.2,180.2,243.6,184.9,237.9,184.9C237.9,184.9,237.9,184.9,237.9,184.9z M409.1,183
	c0,6.2-5.1,11.3-11.3,11.3h-28.2c-6.2,0-11.3-5.1-11.3-11.3v-16.9c0-6.2,5.1-11.3,11.3-11.3h28.2c6.2,0,11.3,5.1,11.3,11.3V183z"/>
<path class="st5" d="M378.5,179.7h-12.2c-1.8,0-3.3,1.5-3.3,3.3c0,1.8,1.5,3.3,3.3,3.3h12.2c1.8,0,3.3-1.5,3.3-3.3
	C381.8,181.2,380.3,179.7,378.5,179.7z M378.5,184.4h-12.2c-0.8,0-1.4-0.6-1.4-1.4c0-0.8,0.6-1.4,1.4-1.4c0,0,0,0,0,0h12.2
	c0.8,0,1.4,0.6,1.4,1.4C379.9,183.8,379.3,184.4,378.5,184.4z"/>
<path class="st5" d="M401.1,179.7h-12.2c-1.8,0-3.3,1.5-3.3,3.3c0,1.8,1.5,3.3,3.3,3.3h12.2c1.8,0,3.3-1.5,3.3-3.3
	C404.4,181.2,402.9,179.7,401.1,179.7z M401.1,184.4h-12.2c-0.8,0-1.4-0.6-1.4-1.4c0-0.8,0.6-1.4,1.4-1.4c0,0,0,0,0,0h12.2
	c0.8,0,1.4,0.6,1.4,1.4C402.5,183.8,401.9,184.4,401.1,184.4z"/>
<path class="st5" d="M378.5,171.2h-12.2c-1.8,0-3.3,1.5-3.3,3.3c0,1.8,1.5,3.3,3.3,3.3h12.2c1.8,0,3.3-1.5,3.3-3.3
	C381.8,172.7,380.3,171.2,378.5,171.2z M378.5,175.9h-12.2c-0.8,0-1.4-0.6-1.4-1.4s0.6-1.4,1.4-1.4c0,0,0,0,0,0h12.2
	c0.8,0,1.4,0.6,1.4,1.4S379.3,175.9,378.5,175.9C378.5,175.9,378.5,175.9,378.5,175.9z"/>
<path class="st5" d="M401.1,171.2h-12.2c-1.8,0-3.3,1.5-3.3,3.3c0,1.8,1.5,3.3,3.3,3.3h12.2c1.8,0,3.3-1.5,3.3-3.3
	C404.4,172.7,402.9,171.2,401.1,171.2z M401.1,175.9h-12.2c-0.8,0-1.4-0.6-1.4-1.4s0.6-1.4,1.4-1.4c0,0,0,0,0,0h12.2
	c0.8,0,1.4,0.6,1.4,1.4S401.9,175.9,401.1,175.9C401.1,175.9,401.1,175.9,401.1,175.9z"/>
<path class="st5" d="M378.5,162.8h-12.2c-1.8,0-3.3,1.5-3.3,3.3c0,1.8,1.5,3.3,3.3,3.3h12.2c1.8,0,3.3-1.5,3.3-3.3
	C381.8,164.2,380.3,162.8,378.5,162.8z M378.5,167.5h-12.2c-0.8,0-1.4-0.6-1.4-1.4c0-0.8,0.6-1.4,1.4-1.4c0,0,0,0,0,0h12.2
	c0.8,0,1.4,0.6,1.4,1.4C379.9,166.8,379.3,167.5,378.5,167.5z"/>
<path class="st5" d="M401.1,162.8h-12.2c-1.8,0-3.3,1.5-3.3,3.3c0,1.8,1.5,3.3,3.3,3.3h12.2c1.8,0,3.3-1.5,3.3-3.3
	C404.4,164.2,402.9,162.8,401.1,162.8z M401.1,167.5h-12.2c-0.8,0-1.4-0.6-1.4-1.4c0-0.8,0.6-1.4,1.4-1.4c0,0,0,0,0,0h12.2
	c0.8,0,1.4,0.6,1.4,1.4C402.5,166.8,401.9,167.5,401.1,167.5z"/>
<path class="st2" d="M121.6,144.3c0,0-13.4,56.4,3,56.4s54.9-63.8,54.9-63.8s40.1-20.8,23.8-28.2s-37.1,11.9-37.1,11.9l-24,33.3
	l-1.3-17L121.6,144.3z"/>
<path class="st3" d="M152.8,96.7l-8.9-8.9c0,0-17.8,10.4-19.3,20.8s-8.9,43.1-8.9,43.1l27.5,2.2l8.9-13.4L152.8,96.7z"/>
<path class="st6" d="M574.8,75.6c-1.1-3.3-15.1-14.5-6.6-16.4l7,9.4l32.4-32.4l3.3,3.3L574.8,75.6z"/>
<path class="st6" d="M574.8,185.8c-1.1-3.3-15.1-14.5-6.6-16.4l7,9.4l32.4-32.4l3.3,3.3L574.8,185.8z"/>
<path class="st6" d="M574.8,297.6c-1.1-3.3-15.1-14.5-6.6-16.4l7,9.4l32.4-32.4l3.3,3.3L574.8,297.6z"/>
<circle class="st1" cx="672.9" cy="62.2" r="10"/>
<rect x="710.4" y="61.2" class="st1" width="161" height="2"/>
<circle class="st1" cx="672.9" cy="172.4" r="10"/>
<rect x="710.4" y="171.4" class="st1" width="161" height="2"/>
<circle class="st1" cx="672.9" cy="284.2" r="10"/>
<rect x="710.4" y="283.2" class="st1" width="161" height="2"/>
<polygon class="st7" points="600,312.5 550,312.5 550,261.5 584,261.5 584,263.5 552,263.5 552,310.5 598,310.5 598,287.5 
	600,287.5 "/>
<polygon class="st7" points="600,200.5 550,200.5 550,149.5 584,149.5 584,151.5 552,151.5 552,198.5 598,198.5 598,175.5 
	600,175.5 "/>
<polygon class="st7" points="600,86.5 550,86.5 550,35.5 584,35.5 584,37.5 552,37.5 552,84.5 598,84.5 598,61.5 600,61.5 "/>
</svg>
