<?xml version="1.0" encoding="utf-8"?>
<!-- Generator: Adobe Illustrator 24.2.1, SVG Export Plug-In . SVG Version: 6.00 Build 0)  -->
<svg version="1.1" id="b786c040-be29-4860-bc6a-b276c1c1f374"
	 xmlns="http://www.w3.org/2000/svg" xmlns:xlink="http://www.w3.org/1999/xlink" x="0px" y="0px" viewBox="0 0 1080 639"
	 style="enable-background:new 0 0 1080 639;" xml:space="preserve">
<style type="text/css">
	.st0{fill:#FCBF49;}
	.st1{fill:#F77F00;}
	.st2{fill:#F2F2F2;}
	.st3{fill:#2F2E41;}
	.st4{fill:#D62828;}
	.st5{fill:#3F3D56;}
</style>
<path id="a513f258-927a-4de2-b47c-f6d8484aa7b1" class="st0" d="M285.5,346.6l-1.2-0.3c32-141.3,172.4-230,313.8-198.1
	c98.4,22.3,175.4,99,197.9,197.4l-1.2,0.3C767.6,226.5,662.9,143,540.2,143C419.1,143,312,228.7,285.5,346.6z"/>
<path id="b48e35fb-0fa9-4a6e-a77a-d5ee8c8a325a" class="st0" d="M1080,614H0V0h1080V614z M2,612h1076V2H2V612z"/>
<circle id="f75cebf4-07f7-4414-ab86-40e5ab2d2599" class="st1" cx="74" cy="63" r="9"/>
<circle id="b3bbee1c-ff7e-4047-80a7-543833fb4a02" class="st2" cx="101" cy="63" r="9"/>
<circle id="b056dc2b-10c3-4366-8b68-ab2b41800264" class="st2" cx="128" cy="63" r="9"/>
<path id="b7f9e633-caf8-48cc-9bf3-ee1e6a98fd8b" class="st0" d="M1037,512.2V579h-71.1C973.6,544.3,1001.8,517.8,1037,512.2z"/>
<path id="afff29c9-505b-4418-a373-01de3d3be863" class="st0" d="M911.8,183.1l-0.6-0.8L671.8,380.9l-0.8,0.6l165.9,200h2.6
	L673.8,381.8l237.1-196.6l126.1,152V334L911.8,183.1z"/>
<circle id="f8cef931-c3bb-4037-9a50-1e0fdc7c5e4a" class="st0" cx="704.5" cy="222.8" r="61.7"/>
<path id="a345d496-be51-4ced-87e4-88917a587ade" class="st1" d="M807.1,353l-34.3,99.5l0,0l-16.5,48c0,0-1.7,76.3-3.4,76.3
	c-0.4,0-0.9,1.1-1.4,2.8H587l13.2-140.2l-0.8-6.5l-10.3-83.7c-2.4-19.6,9.1-38.2,27.7-44.7l17.2-6.1c22.6-8,46.9-9.8,70.5-5.4l0,0
	c20.9,3.9,40.7,12.7,57.6,25.7L807.1,353z"/>
<path id="a678a244-be81-46d4-9955-cfd6d99b50a8" class="st3" d="M758,173.1c0,0-19.6-42.4-57.1-32.6s-58.8,24.5-60.4,39.2
	s0.8,36.7,0.8,36.7s4.1-30.2,30.2-23.7s66.9,1.6,66.9,1.6l6.5,58.8c0,0,7.3-10.6,15.5-4.1S784.1,186.2,758,173.1z"/>
<path id="b1de1415-f5bf-440f-a8b8-fa9f905c1360" class="st1" d="M839.3,507.3c0,0,0,38.7-14.2,72.4h-48.9l0.4-1.1l13.6-59.4
	l-5.1-20.3l-12.3-46.3l0,0c-6.4-24.1-6-49.4,1.1-73.3l0.6-1.9c4.3-14.5,17.6-24.4,32.7-24.4l0,0c0,0,22,18.7,20.3,54.3L839.3,507.3z
	"/>
<path id="f1868812-8ac7-4b0c-a438-ab55a4a15b12" class="st0" d="M980.4,122C962,122,947,107.1,947,88.7s14.9-33.4,33.4-33.4
	c18.4,0,33.4,14.9,33.4,33.4l0,0l0,0C1013.8,107.1,998.8,122,980.4,122z M980.4,56.8c-17.6,0-31.8,14.2-31.8,31.8
	s14.2,31.8,31.8,31.8s31.8-14.2,31.8-31.8l0,0l0,0C1012.2,71.1,998,56.8,980.4,56.8z"/>
<path id="b1b186d5-33ae-41a2-a01c-c43193f01a60" class="st1" d="M1037,581.5H43v-549h994V581.5z M44.8,579.7h990.3V34.3H44.8V579.7z
	"/>
<path id="b98eb8ea-1fd7-4cba-9afb-7866ed7d6078" class="st4" d="M994.4,76l-0.7-0.7l-13.6,13.6l-13.6-13.6l-0.7,0.7l13.6,13.6
	l-11.8,11.8l0.7,0.7l11.8-11.8l11.8,11.8l0.7-0.7l-11.8-11.8L994.4,76z"/>
<path id="a9b170f1-abe6-494b-85b0-d8713abcdd5c" class="st4" d="M415.8,347.4H77c-6.6,0-11.9,5.4-12,12v130.8c0,6.6,5.4,11.9,12,12
	h338.9c6.6,0,11.9-5.4,12-12V359.4C427.8,352.8,422.4,347.5,415.8,347.4z M426.4,490.2c0,5.8-4.7,10.5-10.5,10.5H77
	c-5.8,0-10.5-4.7-10.5-10.5V359.4c0-5.8,4.7-10.5,10.5-10.5h338.9c5.8,0,10.5,4.7,10.5,10.5V490.2z"/>
<path id="b6b39a3c-92e5-4d4e-830c-c9cb70ad8092" class="st1" d="M396,385.4H218.5c-5.2,0-9.4,3.4-9.6,7.7c0,0.1,0,0.2,0,0.3
	c0,4.4,4.3,8,9.6,8H396c5.3,0,9.6-3.6,9.6-8S401.3,385.4,396,385.4z"/>
<path id="ae94418e-82bb-46b2-bcad-c3c282755a35" class="st1" d="M396,417.4H218.5c-5.2,0-9.4,3.4-9.6,7.7c0,0.1,0,0.2,0,0.3
	c0,4.4,4.3,8,9.6,8H396c5.3,0,9.6-3.6,9.6-8S401.3,417.4,396,417.4z"/>
<path id="e8feddc1-03fc-4048-aa80-45fc0ee9652e" class="st1" d="M396,449.4H218.5c-5.2,0-9.4,3.4-9.6,7.7c0,0.1,0,0.2,0,0.3
	c0,4.4,4.3,8,9.6,8H396c5.3,0,9.6-3.6,9.6-8S401.3,449.4,396,449.4z"/>
<path id="bcd0b27f-9e6f-4dd4-9c6b-301806d9c28e" class="st4" d="M135,467.4c-23.4,0-42.4-19-42.4-42.4s19-42.4,42.4-42.4
	s42.4,19,42.4,42.4S158.4,467.4,135,467.4L135,467.4z M135,384.2c-22.6,0-40.9,18.3-40.9,40.9S112.4,466,135,466
	s40.9-18.3,40.9-40.9l0,0l0,0C175.9,402.5,157.6,384.2,135,384.2z"/>
<path id="a4b95a53-3e76-43d9-9905-f39259c2aa97" class="st4" d="M296,563h-36v-36h36V563z M262,561h32v-32h-32V561z"/>
<path id="b5224a29-3e2c-47b8-aafd-f30a3a8a6089" class="st5" d="M217.2,551.5l-12.9-11.8l1.4-1.5l11.1,10.2l25.4-38l1.7,1.1
	L217.2,551.5z"/>
<path id="b1af4244-ebcd-4e3e-9659-fd120ece41f1" class="st0" d="M230,536v25h-32v-32h25v-2h-27v36h36v-27H230z"/>
<circle id="aed972d3-7bba-44b7-a5d2-fd1675eb4fbc" class="st1" cx="119.5" cy="438.5" r="23.5"/>
<path class="st0" d="M426.9,619.1c0.5-10.3,9.3-18.3,19.7-17.7c1.1,0.1,2.2,0.2,3.3,0.5l35.5-56.3l14.3,31.5l-35.9,48.6
	c-3,9.9-13.5,15.6-23.5,12.5C431.9,635.7,426.4,627.8,426.9,619.1L426.9,619.1z"/>
<path id="b4b1ee8f-44c7-4e6a-b1f2-73ec029b7adc" class="st1" d="M612.2,310.9l-2,0.3c-22,3.9-40.6,18.9-48.4,39.9
	c-0.2,0.6-0.5,1.3-0.7,1.9l-13.6,61l-93.3,178.1l28.8,17c0,0,79.7-93.3,89.9-125.5l41-78.8c2-3.9,3-8.3,2.9-12.8l-3.1-79.8
	C613.7,311.4,613,310.8,612.2,310.9C612.3,310.9,612.2,310.9,612.2,310.9z"/>
</svg>
